<?xml version="1.0" encoding="utf-8"?>
<!-- Generator: Adobe Illustrator 26.3.1, SVG Export Plug-In . SVG Version: 6.00 Build 0)  -->
<svg version="1.1" id="Layer_1" xmlns="http://www.w3.org/2000/svg" xmlns:xlink="http://www.w3.org/1999/xlink" x="0px" y="0px"
	 viewBox="0 0 272 323" style="enable-background:new 0 0 272 323;" xml:space="preserve">
<style type="text/css">
	.st0{opacity:0.2;}
	.st1{fill:#0B0B0B;}
</style>
<g class="st0">
	<path class="st1" d="M173.2,22.6c3-0.6,13.4-8,15.4-9.1c2-1.1,1-1.8-1.6-1.1c-3.2,0.8-18.8,4.7-21.1,6
		C165.9,18.4,171.1,23,173.2,22.6z"/>
	<path class="st1" d="M124.2,65.3c12.2,10.6,21.6,2.2,32.4-5c6.3-4.2,10.7-4.7,13.4-4.1c2.5,6.3,10.2,7,18.2,9.1
		c4.3,1.1,9.3,4,12.1,5.2c8.2,3.4,16.1-5.1,14.6-8.2c-1.4-2.7-5.4-4.8-10.1-7.9c12.1-5.8,15.6-3.6,17.8-2c2.3,1.7,6.7,5,10.8,3
		c4.1-2,6.4-1.7,6.4-1.7c-1.1-1.5-4.9-1-4.9-1c1.6-3.4,5.3-4.7,5.3-4.7c-4.3-0.2-5.9,4.4-8.2,4.7c-5,0.7-6.2-4.1-13.7-5
		c-5.1-0.7-13.8,3.1-16.9,4.5c-3.4-2.5-7-5.6-9.9-9.9c-3.8-5.7-1.2-16.6-1.2-16.6c2.1-3.3,11.8-4.7,11.8-4.7s-0.4,0.2-0.6,0.9
		c-0.2,0.7,1.9,0.9,1.9,0.9c2.3,3.4,3.1,20.1,2.9,21c-0.2,0.9,0.2,0.7,0.2,0.7c4.3-7.5,2.4-23.7,2.4-23.7c2-4.5,3-3.4,3-3.4
		c1.6,3.5,3,21.3,3.9,20.7c3.2-8.1,0.9-22,0.8-22c0.7-0.9,1.1-2.1,0.8-2.1c-0.3,0-1.3,0.6-1.3,0.6c6.2-12.8,2.9-18.6-35.8-11.1
		c-29.3,5.7-35.1,19.4-36.2,25.3c-2.5-0.4-4.7-0.4-6.6,0.1c-9.7,2.4-6.5,18.4,3.2,22.1c8.8,3.4,11.3-6,14.7-7.9
		c3.6-2.1,8.3,1.9,8.3,1.9l1.3,1.4c-10.6-0.4-22.6,14.5-31.9,14.6c-5.5,0.1-12.2-3.2-15-10.1c-1.6-4.1-2.9-4.3-2.9-4.3
		S115.9,58.1,124.2,65.3z M170.7,11.5c25.8-7.2,44.4-7.9,43.2-3.8c-0.4,1.4-0.9,2.8-6.3,5.5c-9.3,4.6-16.9,5.2-21,13
		c-0.3,0.7-0.6,1.3-0.9,2c-2.2,1.9-4.9,5.6-6.4,7.3c-1.4,1.5-3.6,3.3-5.6,4.3c1.2-1.9,1.1-4.8,0.4-7.2c-1-3.3-2.9-5.6-2.9-5.6
		c-0.5,0,1.6,5.9-3.2,7c-5.4,1.2-11.8-8.9-13.5-14.6C158.1,16.4,163.2,13.6,170.7,11.5z M138.8,42.9c-1.6-2.2,3.8-5,8.4-4.5
		C147.9,38.4,141.1,46,138.8,42.9z M147.1,29.3c0.9-2.5,2.8-5.9,6.5-9.2c2.9,10.7,10.5,21.8,16.4,21.7c0.1,0.6,0.2,1.1,0.2,1.1
		c6.1,12.3,12.6,12.1,24.7,19.2c2.2,1.3,6.5,3.5,9.4,3.4c4.9-0.2,6.7-4.2,4-3c-2.7,1.2-5.9,1.3-12.1-2.3c-6.2-3.6-8.4-3.9-13.7-7
		c-7.3-4.3-8-11.5-7.9-11.6c3.1-1.2,7.4-6,9.9-9.1c-1.1,9.1,4.6,19.2,15.8,23.8c13.4,5.5,11.9,7.3,9.4,9.5
		c-3.3,2.9-8.9,2.4-19.8-2.7c-7.7-3.6-13.1-5-16.6-6.9C169.2,40.8,157,31.9,147.1,29.3L147.1,29.3z"/>
	<path class="st1" d="M125,46.9c3.6,12.5,14.3,13.1,14.2,8c-0.1-4.4-4.8-6.1-4.8-6.1s-0.2-0.1,0.6,1c0.8,1.1,1,2.8,0.4,3.7
		c-0.9,1.4-6,1.8-10.1-7c1.1-1.8,2.8-3.4,5.3-4.6c0,0-1.2-4.2-0.7-8.2c0,0-13.6,6.7-6.8,21.3C123,55,122.7,50.8,125,46.9z"/>
	<path class="st1" d="M110.3,65.7c-0.3-2.9,11.3,2.1,11.6,0.1c0.2-1.4-6.2-6.3-7.5-7.9c-0.8-0.9,0-1.2,0.6-1.2
		c0.8-0.1,1.2,0.3,1.2,0.3c0,0-3-4.2-5.6-3.1c-2.9,1.2-0.6,4.3,6.2,9.2c2.7,1.9-12-4.1-12.1,1.3C104.6,68.7,110.6,68,110.3,65.7
		L110.3,65.7z"/>
	<path class="st1" d="M121.5,106.7c12.5,10.7,27.8,6,24.7-0.7c-2.6-5.5-11.5-3.3-11.5-3.3c0,0,5.2,1.4,3.7,4.9
		C136.1,113,121.9,106.1,121.5,106.7L121.5,106.7z"/>
	<path class="st1" d="M121.3,122.4c-7.1-1.6-11.9-10.8-12.1-10.2c8.2,16.3,20.2,14.7,19.9,10.9c-0.3-3.9-6.5-4.6-6.7-4.1
		c2.2,0.8,2.6,1.6,2.7,2.3C125.2,121.9,124,123,121.3,122.4z"/>
	<path class="st1" d="M183.3,190.6c-3.6-11.2-16.2-22.8-16.2-22.8c10.8,15.2,12,24.7,12,24.7L183.3,190.6z"/>
	<path class="st1" d="M169.7,224.4c0,0,2.5,3.5,3.2,3.5c0.7,0,7.4-5.6,5.7-13.8c-0.1-0.7-1.6-3.7-1.8-1.8
		C176.8,212.4,177.8,219,169.7,224.4z"/>
	<path class="st1" d="M198.6,221.5c0.9,0.7,3.3,0.2,2.2-5.1c-1.2-5.8-4.9-7.8-4.9-7.8c-2.1-1-0.4,1.9-0.4,1.9
		c3.5,5.1,1.2,6.6-0.1,5.3c-0.3-0.3-2.2-2-1.8,0.2c0.2,1.2,2.6,3.7,1.8,5.7c-1.3,3.5-3.7-2.4-3.8,0.2c-0.1,2.2,2,7,4.8,7.1
		C200.9,229.3,197.8,221,198.6,221.5z"/>
	<path class="st1" d="M86.2,259.5c7.5,0.5,14.5-0.1,20.7-1.4c3.7,9.7,12.1,18,28.8,16.5c17.7-1.6,24.3-17.3,28.1-28.4
		c0.3,0.3,0.6,0.6,0.9,0.9c0.2,0.1,0.3,0.2,0.5,0.3c-4,8,0.4,15.6,3.6,13.1c2.8-2.3,1-7.5,0.4-6.7c0,0-0.2,3.1-2.3,2.6
		c-2.7-0.5-1.6-6.9-1.5-8.8c29.8,21.6,52-6.6,48.9-31.5c-1.3-10.2-11.2-22.5-18.8-30.6l6.3,3.1c0,0,1.8-5.9,3.6-7.3
		c4.3,7.8,6.6,13.7,6.6,13.7s0,0.5,1.3,1.8c-1.3-37.5-20.3-51.3-37-55.5c-0.1-0.8-0.3-1.6-0.5-2.4c-4.3-16.1-29.1-20.4-37.7-22.1
		c-15.6-3.1-23.8-12.6-18.9-12.7c4.9-0.1,27.3-3.1,20.6-21.4c-6.5-17.9-28.4-17.6-36-10.1c-6,5.9,2.6,16.1,11.5,16.5
		c1.9,0.1,3.3-0.2,4.6-0.6l-4.2,4.2l-8-4.4l-6,6.6l8.1,4.4l6-6.6l7.9,4.8l6.3-6.3l-7.4-4.5c2.1-2.3,2.5-5.7,2.6-8.7
		c0.2-5,2.6-3.6,2.6-3.6s3.8,1.7,4,10c0.3,10.8-7.2,13.9-13.1,14.4c-4.4,0.4-19.5-0.7-10.8,9.5c11.4,13.6,47.4,12.9,58.9,31.6
		c-3.2-0.2-6.1,0-8.5,0.3c-13.5-17.8-32-14.8-35.1-12.3c-3.2,2.5,14.3,15.2,14.3,15.2s7.7-0.6,9.2-2.4c1.4-1.8-8.3-9.7-8.3-9.7
		c4.9-0.4,13.7,5.6,17.2,9c0.2,0.2,0.4,0.4,0.6,0.6c-1,0.2-1.8,0.5-2.5,0.7c-9.8,3.6-10.7,9.4,4.1,19.7c3,2.1,5.9,3.2,8.7,3.8
		c-0.1,0.2-0.2,0.3-0.2,0.3s0.1-0.1,0.4-0.3c11,2.2,19.4-5.2,19.4-5.2s0.5-1.4-2.1-0.6c-1.8,0.6-6.1,1.7-11.7-0.2
		c1.8-2.6,3.5-6,4.2-10c12.7,7.1,22.3,20.6,28.4,31.2c-2-1.2-5.2-3-7-3.3c-1.6-0.3-3.5,4.5-4.2,6.6c-3-3.1-5.4-5.4-6.3-6.2
		c-5.4-5-4.4-7.8-2.5-6.7c4.7,2.6,11.6,2.5,10.2-2.5c-0.4-1.4-2.4-2.3-4.8-1.9c-1.6,0.3-2.2,0.6-2.1,0.6c0,0.3,3.8,0.2,3.6,2.8
		c-0.2,1.9-3.6,1.6-7.5-0.6c-1.9-1.1-9.1-3.6-11-0.4c-3.3,5.7,18.2,17.9,28,40c8.9,20.2-9.7,48.1-34,37.5c0,0-1.4-0.7-2.6-1.2
		c2.4-6.9,3.7-11.4,6.4-8.3c11,12.8,21.3,0,20-15.4c-1.2-13.6,5-18.1,5-18.1c-9-12.7-12.2-11.2-12.2-11.2
		c-1.7,13.3-5.9,18.2-5.9,18.2l4.6,4.4c0,0,0,3.7,0.6,7.1c0.4,2.4-1.3,13.6-10.8,8.4c-0.9-0.5-2.1-1.7-3.2-3.2
		c-6-8.5-11.3,13.4-11.3,13.4c-10.7,29.1-29.2,24.5-35.9,22.5c-3.3-1-6.4-3.1-8.8-6c15.6-4.4,25.3-12.2,25.3-12.2l4.6,2.1
		c7.5-10.4,15.4-9.6,15.4-9.6s-7.4-6.6-22.5,0.2c-8.7,3.9-15.6,10.5-26.3,13.8c-1.7-3.8-2.5-8.3-2-12.8c0.3-5.6-1.4-4.9-2.2-0.5
		c-0.7,3.8-0.7,9,0.3,14.3c-5.4,1.1-11.7,1.5-19.5,0.4c-29.8-4.1-56.4-31.7-59.8-46.6C26.9,230.8,55.9,257.4,86.2,259.5L86.2,259.5z
		 M112.3,83.2c-2.4-0.6-0.2-5.6,3.3-7.9C116.2,75,115.7,84.1,112.3,83.2z M168.8,157.4c-1.4-0.7-2.9-1.6-4.4-2.7
		c-9.2-6.9-8.6-10.9-5.3-10.8c3.4,0.1,6.7,0.7,9.8,1.7C170,149.8,169.6,154,168.8,157.4L168.8,157.4z"/>
	<path class="st1" d="M144.9,251.1c0.2-2.1-7.9-4.2-7.9-4.2l-1.7,4.2c-10.2,0.3-15.3,8.8-11.1,10.6c3.7,1.5,7.8-3.1,6.7-3.2
		c0,0-3,1.5-3.8-0.8c-1-3.2,7.1-5.8,8.1-6.5l-1.9,4.6c0,0,8.3,2.1,7.9,4.2C141.4,259.2,144.6,253.7,144.9,251.1z"/>
	<path class="st1" d="M130.7,237.8c0,0-14.1,0.5-21.6-2.4l-0.9,4.2C108.2,239.6,119.9,244.2,130.7,237.8z"/>
	<path class="st1" d="M185.1,256.8c0.6-1.7-1.1-0.8-1.1-0.8c-13.9,8.7-31.6,12-31.6,12l-3.9,6.3
		C182.7,270.3,185.1,256.8,185.1,256.8z"/>
	<path class="st1" d="M106.4,259.4c-10.2,0.3-15.4,8.8-11.2,10.6c3.7,1.5,7.8-3.1,6.7-3.2c0,0-3,1.5-3.8-0.8
		C97.1,262.6,106.5,259.9,106.4,259.4z"/>
	<path class="st1" d="M91.2,241c6.1-3.1,10.5,0.9,10.5,0.9c1-0.8,3.6-3.6,1.8-5.7c-3-3.6-19.3,0.7-20.5,6.6c-0.8,3.9,11.1,4.4,7.4,5
		c-3.1,0.5-16.1-1.3-25.2-12.2c-1.6-2.3-3-2.5-1.2,0.3c11.2,17.5,33,17.5,37.1,12.5C105,243.7,84,244.7,91.2,241z"/>
	<path class="st1" d="M61.6,238.7c-4.8-4.2-5.2-6.2-5.3-6.2c-0.7-0.1-6-1.4-6-1.4c5.8,10.2,21.2,14.6,19.5,13.4
		C66.8,242.5,64.6,241.4,61.6,238.7z"/>
	<path class="st1" d="M54.3,231.4c5.8,0.5,10.3-1.5,11.3-5.3l10.9,1.7c-0.2,1.7-1.3,8.9-3.3,9.9l11.4,1.8c2.2-1.1,3.3-9.9,3.3-10.3
		l-10.7-1.7c1.9-1.9,2.9-9.6,2.9-10l-11.4-1.8c0,0.4-1,8.5-3.1,10.1c0.6-2.4-0.3-5.6-3.1-9.3c-4.8-6.4-10.1-7.5-13.8-5.9
		c2.6-5.7,10.6-10.1,10.6-10.1s-1.8-6.3-3.9-7.1c0,0-4.8,1.2-8.6,7.3c0,0-0.6-10.8,16.2-17.1c-6-0.1-19.5,6-19.5,15.8
		c0,6.1,3.5,10.7,4.8,11.4c-2.2,1-3.7,3-4.2,5.2c-1.1,5.2-2.2,3.7-2.2,3.7s-4.9-3.4-4.5-14.6c0.4-10.5,9.2-21.8,29.1-24.7
		c-4.9,6.7-7.1,15.1-6.7,22.3c0.2,3.4-0.6,20.5,17.7,5.7c9.5-7.6,11.5-19.4,11.3-28.8c11.6,1.1,21,14.1,29.7,20.6
		c12.8,9.6,24.4,3.7,24.4,3.7l-0.7-11.4c-1.5,0.3-2.9,0.3-4.2,0.2c1.9-7.9-2.8-14.2-5.7-11.4c-2.9,2.7-0.6,8.3,0.1,7.3
		c0,0-0.1-3.3,2.2-3c2.2,0.3,2.4,4.2,2.4,7.1c-11.5-1.7-17.2-16-17.2-16c6.5,2.2,17.5,2.2,27.4,3.6c-2,5.7-3.8,20.2,10.9,31.1
		l2.6-8.6c0,0-13.4-6.9-12.3-22.2c4.3,0.6,8.3,1.6,11.7,3c11.9,5.2,10.7,16.9,8.5,24c2.2-12.8-14.4-20.2-14.4-20.2
		c14.2,9.4,8.7,21.9,8.7,21.9l3.3,4.3c0,0,12.7-10.8,8-26.5c-5.1-17-34.7-19-47.8-20c-11.7-0.9-11.7-3-11.7-3
		c-7,15.5,7.4,27.6,7.4,27.6c-2.1-1.3-3.2-2.3-4.6-3.7c-2.6-2.7-5.1-5.4-7.4-8c3.6-9-1.7-16.9-4.9-13.9c-2.9,2.7-0.6,8.3,0.1,7.3
		c0,0-0.1-3.3,2.2-3c2.9,0.4,2.4,6.9,2.3,9.2c-6.5-7-12.7-12.6-22.2-11.6c-0.4-2-0.8-3.2-0.8-3.2l-1.7,2.2c0,0,0.1,0.5,0.1,1.4
		c-6.3,1.3-11.4,4.2-15.3,8.1c-33.4-3.8-48,20.6-38.5,36.7C37.4,223.4,45.5,230.7,54.3,231.4L54.3,231.4z M58.4,219.8
		c-1.4,3.3-5.8,3-5.8,3C53.7,216.4,59.8,216.6,58.4,219.8z M84,180c0.4-0.1,0.8-0.1,1.2-0.2c-0.4,4.5-1.4,9.2-3.8,12.4
		c-5.8,7.8-15.2,13.2-17,10.2C62.7,199.3,67.7,185.1,84,180z"/>
	<path class="st1" d="M118.6,204.4c0.2-2.5-7.6-7.4-17.5-7.1c0.8-10.9-7.6-17.5-10-13.2c-2.1,3.8,2.2,9,2.6,7.8c0,0-1.2-3.5,1.3-4
		c3.4-0.7,5.1,7.4,5.8,9.4c-2.2,0.1-4.5,0.4-6.9,1.1c-8.4,2.4-12.1,10-12.1,10c7.7-5.8,20.5-6.1,30-5
		C111.8,203.4,118.5,204.4,118.6,204.4L118.6,204.4z"/>
	<path class="st1" d="M93.2,264c-12.2-0.5-24-5.7-24-5.7c11,7.2,22.2,10.2,22.2,10.2L93.2,264z"/>
	<path class="st1" d="M231.2,202l-3.5-4.8c-12,4.2-20-2.4-20-2.4c-0.6-1.1-1.5-0.8-1.2-0.1c7.4,17.3,35.2,11.6,47.4,26.3
		c18.7,22.6,4.9,56.1,0.5,62.6c-4,5.9-3.8,6.9-3.8,6.9c7.3-4.2,21-21.1,21.4-34.8C273.1,218.1,231.2,202,231.2,202z"/>
	<path class="st1" d="M248.5,276.6c0,0,3.3,3.2,5.2-0.9c1.3-2.8-1.1-7.7-1.1-7.7s-1.2-1.7-0.4-1.6c1,0.1,2.7-0.2,3.9-3.1
		c0.3-0.8,0.5-1.7,0.5-2.5c7.9-8.5-3.3-24.2-3.1-29.6c0.1-2.7,2.2-5,2.2-5c-1.7-4.6-7.2-9.2-7.9-8.6c-2.5,5-2.9,7.1-3.1,7.1
		c-1.5-3.2-7.6-5-11.5-5.9c-3.9-0.9-4.9-2-4.9-2l-0.8-2.7c-8.1,2.5-12.6-3.1-12.6-3.1s-1.5,10.1,16.5,14.9
		c8.6,2.3,12.4,2.8,13.4,4.7c0.6,1.2,0.3,2.3,2.7,6.3c4.5,7.7,5.2,12.6,5,15.3c-4.4-4.9-10.8-8.2-10.9-6.7c0,0.9,6.8,6,5.7,11.3
		c-0.1,0.7-0.4,1.1-0.9,1.1c-1,0.2-2.2-1.9-2.8-0.6c-1,2,3.4,9.3,1.5,10.8c-0.7,0.5-3.9-4.5-4.1,1.5c-0.2,5.2,2.3,14.1-4.2,19.9
		c-3.6,3.2-7.8,3.4-11.7,2.1c3.6-9.4,4.1-18.9,5.2-19.9c1.7-1.6,2.8,1.5,2.8,1.5c0.6,0,1.2-12.1-5.5-11.2c-3.7,0.5-3.5,8.9-6.4,18.7
		c-0.8-2.5-3.8-8.7-13.8-7.2l1.4,3.2c0,0,8.8-1.5,12.4,4.4c-0.7,2.3-1.5,4.6-2.6,6.9c-0.7-0.6-1.3-1.1-1.9-1.7
		c-7.5-7.6-10.6-11.3-13.7-11c-3.2,0.3-4.3,7.9,2.2,14.1c0,0-0.7-3.6,0.5-4.5c1.6-1.2,4.6,2.9,8.8,7c0.4,0.4,0.8,0.8,1.3,1.2
		c-4.1,6.2-10.6,11.9-21.2,15.4c8.5-8.8,4.5-22.2-4.1-27.5c-10.2-6.3-19,0.8-16.4,11.6c2.5,10.4,11.8,7.9,15.4,5
		c3.5-2.9,4.6-0.2,4.6-0.2s-4.5,8.2-23.8,10.6c-17.8,2.1-35.3-1.6-47.2-5.5c5.2-3.5,9.6-5.9,13.2-7.7c1.2,1.4,3.2,3,5.9,5
		c2.7,1.9-12-4.1-12.1,1.3c-0.1,4.4,5.8,3.7,5.6,1.3c-0.3-2.9,11.3,2.1,11.6,0.1c0.2-1.4-6.2-6.3-7.5-7.9c-0.8-0.9,0-1.2,0.6-1.2
		c0.8-0.1,1.2,0.3,1.2,0.3s-0.3-0.4-0.8-1c5.5-2.1,8.5-2.2,9.8-2c-4.6,8.9-1.2,18.2,3.1,15.9c4.2-2.2,2.5-8.6,2.4-8.5
		c0,0-1.2,4.2-3.9,3.2c-2.3-0.9-2.4-4.8-1.7-7.7c0.3-1.2,0.7-2.3,1.1-3.3l0.9-1.9c0.4-0.7,0.6-1.2,0.7-1.4l3.5-7.3
		c0,0-8.8,2.2-34.3,0.8c-24.3-1.3-26.3,14.3-15.7,16.4c9.2,1.9,10.3-6.1,10.3-6.1c-0.2,0.2-8.5,3.2-8.3-0.4
		c0.2-2.8,6.8-3.9,13.5-3.5c2,0.1,5.9,0.5,9.4,0.5c0,0-8.2,5.3-16.7,10.4c-0.6,0.4-1.2,0.7-1.8,1c-1.7-0.3-1.7,0-1.3,0.5
		c-8.1,3.2-18.2,1.4-20.9-4.9c-2.3-5.2,2.6-10.5-2.1-12.6c-6.9-3-17.6,24.5-26.3,18.1c-5.3-3.9-0.9-17.6-0.9-17.6s-0.5-7.9-13.8,9
		s-30.1,28.2-44,28.3c0,0,7.7,6.3,27.5-2.5c11.7-5.2,21.8-26.3,24.5-24.1c0,0-3.6,13.3,5.1,18.8c3.3,2.1,6.9-0.2,10.3-3.8l-2.6,5.5
		c0,0,6.9,2.1,6.5,3.8c0.2-0.5,2.3-3.8,3.2-6.2c1.4,0.4,6.6,2.2,6.1,3.7c0.2-0.5,2-3.4,3-5.7c5.9,4.8,17.7,5.1,32.7-4.7
		c12.8,6.7,33.6,15.1,57.4,11.6c3.9-0.6,7.2-1.5,9.9-2.8c8.4,0.1,19.7-1,27.5-6.8c3-2.3,5.4-5.2,7.3-8.4c5.5,3.5,12.6,5.5,20.1,0.9
		c4.9-3.1,7.4-11.1,6.3-19.5C247.6,276,248.5,276.6,248.5,276.6L248.5,276.6z M179,290.3c-1-2.5,4.6-4.5,9.3-2.3
		C188.9,288.3,180.4,293.9,179,290.3z M81.3,303.9l-2.9,6c-0.3-1.3-4.3-2.8-5.8-3.3c4.9-5.7,9.1-13.2,11.2-12.4c0,0,0.9-0.2-0.6,4.8
		c-0.2,2.1,0.1,4,0.8,5.8C82.5,304.2,81.3,303.8,81.3,303.9L81.3,303.9z"/>
	<path class="st1" d="M224.5,227.7c-4.2,0.6,3,1.8,3,1.8c12.8,3.2,14.1,12.6,14.1,12.6l6.3,0.8C244,227.1,224.5,227.7,224.5,227.7z"
		/>
	<path class="st1" d="M217.4,232c-1.9,1.3,8.3,9.6,8.3,9.6s4.5,0.1,5.4-0.9c0.9-1-4.3-6-4.3-6c2.8,0,7.6,4,9.5,6.1
		c1.9,2.1,1.6,0.3,1.6,0.3C231,229.9,219.3,230.7,217.4,232L217.4,232z"/>
	<path class="st1" d="M245.1,252.1c-0.4-0.5-3.2-4.9-5-6c-1.4-1-5.9,4.1-5.9,4.1l5,6C239.1,256.2,243.8,251,245.1,252.1z"/>
	<path class="st1" d="M243.9,263.7c-0.4-0.5-3.2-4.8-5-6c-1.4-1-5.9,4.1-5.9,4.1l5,6C237.9,267.9,242.6,262.6,243.9,263.7
		L243.9,263.7z"/>
	<path class="st1" d="M226.4,254.8l5,6c0,0,4.6-5.2,5.9-4.1c-0.4-0.5-3.2-4.8-5-6C230.9,249.7,226.4,254.8,226.4,254.8L226.4,254.8z
		"/>
	<path class="st1" d="M228.4,287.5l5,1.6c9.8-9.9,1.7-23.1,1.7-23.1C238.1,280.6,228.4,287.5,228.4,287.5L228.4,287.5z"/>
	<path class="st1" d="M205.3,291.9c-2.6,0.5-4.9-3-5.9-6c-1.2-3.6-1-7.7-1.3-7.6c-1.9,13.4,8.5,22.8,11.6,17.7
		c2.6-4.3-2.2-10.5-2.6-9.1C207.1,286.8,208.3,291.3,205.3,291.9z"/>
	<path class="st1" d="M172.1,298c0.3-1.9-5.9-4-7.6-4.6c1.1-2,3.4-5.9,3.8-8.1c0.3-2.2-8.1-4.7-8.1-4.7l-4.3,9.2c0,0,6.9,2.1,8,4
		l-4.1,8.7c0,0,8.6,2.6,8.1,4.7C168.1,306.4,171.7,300.8,172.1,298L172.1,298z"/>
	<path class="st1" d="M113.3,278.5l-4.4-0.2c0,0-10.9,0.4-16.7,11.5l1.2,3.2C93.3,293,99.8,279.7,113.3,278.5L113.3,278.5z"/>
	<path class="st1" d="M74.1,285.6c-0.9,5.3-3.3,4.8-3.3,3.2c0-0.4-0.1-2.6-1.2-1c-0.6,0.9-0.6,3.8-2.4,4.6c-2.9,1.3-0.8-3.7-2.5-2.2
		c-1.4,1.3-3,5.6-1.4,7.3c2.7,2.9,5.8-4.1,5.9-3.3c0.2,1,1.9,2.1,4.5-1.8c2.8-4.3,1.7-7.8,1.7-7.8C74.8,282.7,74.1,285.6,74.1,285.6
		L74.1,285.6z"/>
	<path class="st1" d="M83.4,281.3l2.1-2.8c-12.9-0.4-23.2,4.9-23.2,4.9l-1.1,5.5C73.9,280.1,83.4,281.3,83.4,281.3z"/>
	<path class="st1" d="M54.5,308.9c0,0-1.8,3.8-4.2,2.1c-3.7-2.5,3.4-12.3,2.9-12.6c-9.7,8-8.1,20.3-2.8,18.7
		C55.1,315.8,55.7,308.2,54.5,308.9L54.5,308.9z"/>
	<path class="st1" d="M29.5,307c0-0.6,1.2-4.8,1.3-7.3c0.5,0,7.2,0,7.2,1.7c0.1-0.7,1.5-5.8,1.2-8c-0.2-1.7-7.3-1.7-7.3-1.7
		l-1.2,7.7c0-0.1,0-0.3,0-0.4c-0.2-1.7-7.3-1.7-7.3-1.7l-1.2,8C22.2,305.3,29.4,305.3,29.5,307L29.5,307z"/>
	<path class="st1" d="M20.1,309.6c0.8,0.5,0.9,1.1,0.9,1.1s1-1.7,0-3c-0.2-0.2-0.3-0.4-0.5-0.5c-0.1-3.6-2.8-6.3-4.8-5.4
		c-3.6,1.5-2.7,7.6,1.5,7.4c0.1,0,0.2,0,0.4,0c-0.1,0.3-0.2,0.5-0.4,0.8c-0.7,1.4-2,2.8-3.6,3.9c0.4-0.8,0.5-1.6,0.3-2.3
		c-0.3-2-2.1-3.3-4.4-2c-2,1.2-1.9,3.9-1.9,3.9c0.1,0,2.1-2.7,3.7-1.1c0.7,0.7,0.8,3.6-5.8,5.4c-0.5,0.1-0.8,0.2-1.1,0.3
		c-1.5,0.4-2.9,0.6-4.2,0.7c0,0-1.2,1.4,7.1-0.2C15.5,316.6,19.1,313,20.1,309.6L20.1,309.6z M15.8,305.6c-0.1-0.9,1.6-0.8,1.9,0.9
		C16.7,306.3,15.9,306.2,15.8,305.6z"/>
	<path class="st1" d="M239.5,244.1c0,0-2.5-3.4-11.3,0.6l1.7,3.1C229.8,247.9,234.3,242.6,239.5,244.1z"/>
	<path class="st1" d="M209.5,310.4c12-3.1,21-8,21-8l-4.2-0.9C219.7,307.1,208.5,310.5,209.5,310.4z"/>
	<path class="st1" d="M110.3,310.9l-5.2,2.9c6.4-0.4,35.4,0.7,35.4,0.7C132.3,310.1,110.3,310.9,110.3,310.9z"/>
	<path class="st1" d="M27.4,320.3c14.2-1.3,15.7-5.5,15.7-5.5l1.9-6.5C41.1,318.3,27.4,320.3,27.4,320.3z"/>
	<path class="st1" d="M104.5,88.3c0,0-2.8-3.9-3-9.4c0,0-0.5,7.3,1,13.7L104.5,88.3z"/>
	<path class="st1" d="M159.7,120.9c0,0-4-6.4-9.3-7.7c-4.3-1.1-6,1.5-6,1.5C156.7,117.5,159.7,120.9,159.7,120.9z"/>
</g>
</svg>
