<?xml version="1.0" encoding="utf-8"?>
<!-- Generator: Adobe Illustrator 26.3.1, SVG Export Plug-In . SVG Version: 6.00 Build 0)  -->
<svg version="1.1" id="Layer_1" xmlns="http://www.w3.org/2000/svg" xmlns:xlink="http://www.w3.org/1999/xlink" x="0px" y="0px"
	 viewBox="0 0 254 344" style="enable-background:new 0 0 254 344;" xml:space="preserve">
<style type="text/css">
	.st0{opacity:0.2;}
	.st1{fill:#0B0B0B;}
</style>
<g class="st0">
	<path class="st1" d="M45.7,228c6.7-3.1,10.5-8.3,12-13.2c3.4,0.5,3.1,1.9,3.1,1.9c0.1,0,0.8-2,0.6-3.5c0-1.5-1.2-2.2-2.8-2.6
		c0.3-3.2-0.5-6.1-2-7.7c-3.6-4.1-8.2,1.1-8.3,6.4c-0.1,4.3,2.9,4.8,6.7,5.2c-7.8,12.9-28.4,14.2-28.4,14.2S33.6,233.7,45.7,228
		L45.7,228z M51.1,208.1c0.4-2.3,2.2-2.7,3.6-1.4c0.8,0.8,1.4,2.1,1.5,3.6C53.4,209.9,50.8,209.8,51.1,208.1L51.1,208.1z"/>
	<path class="st1" d="M35.3,218.6c0,0-2.8-3.6-8.9-3c-4.6,0.5-8.5,3.3-10.2,5.5c-0.5,0.6-1.2,2-1.1,3.3c0.1,2.4,2.1,4,4.5,4.3
		c2.1,0.2,4.3-2.1,4.2-4.5c0-1.3-0.6-2.4-1.5-3.2C24.5,219.1,29.6,216.4,35.3,218.6z"/>
	<path class="st1" d="M98.8,281.9c0.5,6.4,4.7,9.2,7.4,7.9c4-1.9,2.2-9.8,0.8-10.5c0,0,0.9,4.3-2.1,4.9c-3.9,0.8-5.2-5.8-4.5-13
		C100.8,265.6,98,272.1,98.8,281.9z"/>
	<path class="st1" d="M95.3,309.3c0,0-0.7-4,12.7-11.8c13.6-7.9,8.6-13.9,8.6-13.9s0.9,2.7-7.7,7.9
		C95.3,299.6,93.5,302.2,95.3,309.3L95.3,309.3z"/>
	<path class="st1" d="M146.2,244.2l-0.7-8.3l-10.3,15.2c0,0-4.8,10.2,3.6,15.6c0,0-3.8-5.5,1.3-13.2
		C145.3,245.9,146.2,244.2,146.2,244.2L146.2,244.2z"/>
	<path class="st1" d="M132.9,181c-2.2,0.6-2.9-3.9-3.7-2.7c-1.1,1.6,2,5.9,2,5.9s1.3,1.6,2.6,1.8c1,0.1,3.1-0.3,3.1-3.4
		c0-2.3-1.5-4.9-1.4-5.2c0.1-0.7,0.8-0.3,1.6-0.6c1-0.4,1.5-2,0.8-4.7c-1.1-4.4-5.8-5-5.8-5l0.4,3.5c0,0,1.6,0.1,2.6,1.2
		c0.8,0.9,1.1,2.8,0,2.9c-0.5,0.1-1.1-0.1-1.6-0.1c-0.6,0-0.8,0.7-0.5,1.2C134.2,178.1,134.2,180.6,132.9,181L132.9,181z"/>
	<path class="st1" d="M215.5,69.4c0.7,8.5-4.3,15.8-4.3,15.8c16.7-22.5,18-46.5,18-46.5c6.1,16.4-0.7,30.6-0.7,30.6
		c1.6,3.3,2.5,9.1,2.5,9.1c13.6-31.3-4.7-54-4.7-54C227.9,42.8,215.5,69.4,215.5,69.4L215.5,69.4z"/>
	<path class="st1" d="M242.9,265.8c1-0.2,1.4-10.9-14.4-14.4l-2.9,9.3C225.6,260.8,239.9,260.5,242.9,265.8L242.9,265.8z"/>
	<path class="st1" d="M159.2,253.9c2.1-4.9,13.8-5.6,13.8-5.6l4.9-4.1c0,0-7,0.7-12.4,2C158.3,248,159.2,253.9,159.2,253.9
		L159.2,253.9z"/>
	<path class="st1" d="M191.7,255.2c-1.6,0-1.5,1.1,1.9,0.7c17.5-1.7,19.5-10,19.1-10.1c-8.2,0.8-20,0.7-19.6,0.9l-1,4.8
		c0,0,6.9,0.2,11.1-0.2C205.2,250.6,201.2,253.9,191.7,255.2z"/>
	<path class="st1" d="M228.1,268.8c-0.2,0.2-1,7.4-9.1,11c-2.7,1.2-9.4,1.4-5.5-2.9c6-6.7,5.7-11,4.3-13.1c-1.8-2.6-10.2-0.9-12.5,3
		c-2.6,4.4-0.2,6.8-0.2,6.8c0,0,1.8-5.4,8.9-5.5c0,0.3,1.1,0-0.6,1.9c-2.5,2.8-5.9,6.9-3.3,12.5c1.9,4.7,8.5,3.2,11.4,1.4
		C230.5,278,228.9,268.2,228.1,268.8L228.1,268.8z"/>
	<path class="st1" d="M235.2,273.8c-0.4-12.5-14-11.3-14-11.3c1,3.2-0.2,6.1-0.2,6.1s11.7-5.3,11,7.8c0,0,11.1,1.8,13.8,7.3
		c0,0-7.5-2.5-17.3-0.2c7.1,1.9,12.2,6.4,12.2,6.4c-5.3-1.1-11.3-0.2-11.3-0.2c6.9,3,11,7.9,11,7.9c-5.9-1.7-12.9,0-26.9-7.1
		c-10.9-5.5-5.2-17.3-5.2-17.3s-4.1,4-4.6,9.6c-0.8,10.5,7.1,13.1,19.5,18c14.9,5.9,15.8,8.5,15.8,8.5c3.1-5.6-4.1-9.2-4.1-9.2
		c6.5,0.2,10.6,2.2,10.6,2.2c-0.5-6.4-8.1-10.2-8.1-10.2c5,0.5,8.1,1.2,8.1,1.2c-1.6-5.6-7.9-7.7-7.9-7.7c6.7,0.3,12.8,2.6,12.8,2.6
		C250.7,275.5,235.2,273.8,235.2,273.8L235.2,273.8z"/>
	<path class="st1" d="M202.6,281.8c-0.8-0.1-1.7-0.3-2.5-0.4c-0.2-3.8,0.8-7.5,3-7.6c0,0,0.8-3.7-1.5-4.3c-1.7-0.4-3.9,4.1-2.9,11.7
		c-24.3-3.5-40.4,4.2-40.4,4.2l2.8,1.3c21.6-5,34.4-0.4,39.7,2.3c0,0,0,0.1,0,0.1c0.1,0.1,0.1,0.1,0.1,0c1.8,0.9,2.6,1.6,2.6,1.6
		C201,287.1,202.6,281.8,202.6,281.8L202.6,281.8z"/>
	<path class="st1" d="M38,147.8c-2,0.5-4.5-3.2-4.4-9.3c-0.9,3-0.8,8,1.1,10.8c1.3,2,3.7,2.7,4.9,1.7c2.6-2.1,0.4-6.7-0.5-6.6
		C39.1,144.4,39.8,147.4,38,147.8L38,147.8z"/>
	<path class="st1" d="M194.6,178.1c0.1,0.1,1.3,1,0-1.7c-0.2-0.3-4.4-8.1-8-8.3c-4.4-0.2-2.4,7.7,3.1,4.4
		C189.6,172.5,191.9,173.7,194.6,178.1z"/>
	<path class="st1" d="M237,149.1c-16.2,14.7-32.8,17.3-41.4,17.5c0.4-2,1.3-3.5,2.8-3.7c0,0,0.7-4.3-2-4.8c-1.6-0.3-3.3,2.9-3.1,8.5
		c-2.2-0.1-3.5-0.3-3.5-0.3c1.2,1.1,2.5,2,3.7,2.8c0.4,3.3,1.4,7.3,3.4,11.8c0,0,0.1,0.1,0.1,0.1c-4.4,1.3-7.9,1.8-7.9,1.8
		c25.7,1.3,32.6-16.8,32.6-16.8c-7.1,4.1-19.7,2.9-19.7,2.9C225.4,165.9,237,149.1,237,149.1L237,149.1z M213.1,171.7
		c-3.8,4.8-10.7,7.7-16.2,9.3c0.3,0-0.7-3.7-1.4-8.3c-0.1-0.9-0.2-1.7-0.2-2.5C204.3,174.5,213.1,171.7,213.1,171.7L213.1,171.7z"/>
	<path class="st1" d="M203.3,267.8c0,0,2.7-0.6,0.3-0.5c-16,0.6-20.8,9-17.7,11.6c2.6,2.2,7.7-1.2,7.8-2.4c0,0-2.9,1.6-4.2-0.3
		C187.8,273.4,195.6,268.7,203.3,267.8L203.3,267.8z"/>
	<path class="st1" d="M181.1,94.7c-2.7-0.4-1.2-5.6-2.7-4.7c-2,1.2-0.8,7.3-0.8,7.3s0.6,2.3,1.9,3.2c1,0.7,3.5,1.2,5.1-2.1
		c1.2-2.5,0.9-6.1,1.1-6.4c0.4-0.7,1,0.1,2,0.1c1.3,0,2.7-1.4,3.3-4.7c1-5.3-3.7-8.3-3.7-8.3l-1.3,4c0,0,1.6,0.9,2.2,2.6
		c0.4,1.4-0.1,3.6-1.4,3.1c-0.6-0.2-1.1-0.7-1.7-0.9c-0.7-0.3-1.2,0.4-1.2,1.1C183.9,92.3,182.6,95,181.1,94.7L181.1,94.7z"/>
	<path class="st1" d="M172,88.8l0.7,5c17-17.8,15.4-35,15.4-35C181.8,77.6,172,88.8,172,88.8z"/>
	<path class="st1" d="M209.4,88.1c-4.4,8.8-1.1,13.9,1.3,13c2-0.8,1.6-4.5,1-4.9c0,0,0,2-1.4,2.2c-2.1,0.2-2.4-5.4-0.6-9.9
		C209.6,88.5,210.1,86.9,209.4,88.1L209.4,88.1z"/>
	<path class="st1" d="M218.1,286.7c-1.4,1.8,4.3,7.5,17,8.4c0.6-0.2-2.6-0.9-6.6-2.2c-3.7-1.3-6.8-3.7-6.1-5.8
		C222.5,287,219.5,284.9,218.1,286.7z"/>
	<path class="st1" d="M153.4,186.1c0,0,0.3,2.2-1.2,2.6c-2.2,0.5-3.5-5.5-2.3-10.7c0,0,0.2-1.8-0.2-0.3c-1.9,5.9-1.2,10,0.1,12.3
		c1,1.7,2.4,2.3,3.4,1.7c0.6-0.3,0.9-0.9,1.1-1.6C154.6,188.4,153.9,186.3,153.4,186.1L153.4,186.1z"/>
	<path class="st1" d="M148.4,158.3c2.2-1.8,0.1-6.5-0.9-6.6c0,0,0.9,2.6-0.9,3.4c-2,0.9-4.3-3.6-4.9-8.7c2.7-0.4,5.5-0.5,6.1,0.3
		c1.2,1.6-0.5-10.3-1.6-11.6c-1.3-1.5-11.2,0.6-11.2,0.6l1.6,11.6c0,0,2-0.4,4.3-0.8C141,156.5,146.2,160.2,148.4,158.3L148.4,158.3
		z"/>
	<path class="st1" d="M140.8,131c0.5-0.2,0.9-0.7,1.2-1.4c3.1,0.5,4.8,2,5.7,1.4c1.5-1.1-4-8.6-2.4-10c1-0.9,1.8,0.7,1.8,0.7
		c0.8-1.3-0.2-2.9-0.2-2.9s-1.1-1.8-2.8-1.4c-1.8,0.4-3,3.9,0.9,10.6c0.4,0.9-4.3-2.5-6.8-1.3C135.8,127.8,137.4,132.3,140.8,131
		L140.8,131z"/>
	<path class="st1" d="M189.2,143.4c-1.7-6.3,0.4-18.6,0.4-18.6l-2.6-3.7c0,0-1.6,11.1-1.3,15.1C186,141.4,189.2,143.4,189.2,143.4z"
		/>
	<path class="st1" d="M231,134.9c0,0-1.5-0.1-3.4,1.1c-4.8,3-13.7,4.8-20.7,4.1l-0.1,5.3C206.8,145.3,220.4,145.8,231,134.9
		L231,134.9z"/>
	<path class="st1" d="M115.6,268.6c2.2-1.1,1.4-5.6,0.6-5.9c0,0,0.2,2.4-1.4,2.7c-2.4,0.4-3.4-6.2-1.8-11.7c0,0,0.4-2-0.2-0.4
		C108.6,264.3,112.9,270,115.6,268.6L115.6,268.6z"/>
	<path class="st1" d="M76.8,206.6c0.5,0.2,3.9-1.2,5-3.1c1.3-2.1,1.9-4.8,1.6-7.2c-0.2-1.2-0.6-2.3-1.3-3.2c-3.2-4.1-5,1.2-3.8,3.4
		c1.1,2,3.3,0.6,3.3,0.6c0.5-0.5,0.7-0.3,0.7-0.1C83.2,201.7,76.8,206.6,76.8,206.6L76.8,206.6z"/>
	<path class="st1" d="M78,217.4c0,0,1,0.7,1.9-0.7c0.8-1.2,0.6-3.2,1.1-2.4c0.3,0.5,0.8,1,1.5,0.7c2.7-1.2,1.3-9.3,0.4-9.2
		c-0.9,0.1-1.4,2.2-1.4,2.3c-0.1,0.3,1.2,1.6,0.8,2.9c-0.2,0.9-0.8,0.7-1,0c-0.3-0.9-0.7-1.6-1.2-1.3c-0.6,0.3-0.4,1.4-0.6,2.3
		c-0.1,0.6-0.5,1.2-0.8,1.2c-1.6,0.3-1.7-3.5-1.9-3.4l-1,2.7C76.1,217.1,78,217.4,78,217.4L78,217.4z"/>
	<path class="st1" d="M78.6,176.5c0,0,9.1-3.3,10.4-1.9c1.3,1.3-1.7-9.6-2.8-10.6c-1.4-1.2-10.4,1.9-10.4,1.9L78.6,176.5z"/>
	<path class="st1" d="M54.6,143.8l3.2,10.5c0,0,9-3.5,10.3-2.2c1.3,1.3-2-9.6-3.2-10.5C63.5,140.4,54.6,143.8,54.6,143.8L54.6,143.8
		z"/>
	<path class="st1" d="M58.3,111c1.3,1.6-1.3-10.7-2.5-11.9c-1.5-1.4-11.6,1.5-11.6,1.5l2.5,11.9C46.7,112.5,57,109.4,58.3,111z"/>
	<path class="st1" d="M63.4,88.3c1.3,1.6-1.3-10.7-2.5-11.9c-1.5-1.4-11.6,1.5-11.6,1.5l2.5,11.9C51.8,89.8,62.1,86.8,63.4,88.3z"/>
	<path class="st1" d="M50.9,97.3c-11.6-4.7-7.3-23.1-7.3-23.1c-1.6-7.5-3.6-6.6-4.1-6.8c-0.5-0.2-3.7,11.9-0.7,21.2
		S50.9,97.3,50.9,97.3z"/>
	<path class="st1" d="M63.4,94c0,0,1.7,2.5,0.2,3.6c-1.7,1.2-5.3-1.3-7.5-7c0.3,3.1,2.2,7.7,4.9,9.6c1.9,1.3,4.4,1.2,5.2-0.2
		C67.9,97.1,64.2,93.7,63.4,94L63.4,94z"/>
	<path class="st1" d="M35.5,56.9c-1.9-0.4-4.1,6.3,0.3,16.4c0.4,0.4-0.4-2.4-0.9-5.9c-0.5-3.3,0.1-6.7,2-6.9
		C36.9,60.4,37.4,57.3,35.5,56.9z"/>
	<path class="st1" d="M28.4,64.1c-3.1-0.1-1.7,5.5,2.2,3.2c0,0,1.6,0.9,3.5,4c0,0.1,0.9,0.7,0-1.2C34,69.8,30.9,64.2,28.4,64.1z"/>
	<path class="st1" d="M152.8,147.5c4-3.8,14.9,3.9,13.4,25.9c-0.3,3.2-0.7-0.5-0.7-0.5c0.3-11.1-5.2-22.4-9.6-20.1
		c-2.8,1.5-1.1,5.7-1.1,5.7C153.2,158.3,149.4,150.8,152.8,147.5L152.8,147.5z"/>
	<path class="st1" d="M252.5,106.8c-3,5.2-6.2,8.7-9.5,11.2c2.8-5.6,6.6-15.9,4.1-27.8c0,0-1.9,22.6-14,32c-1.1,0.2-2.2,0.2-3.3,0.2
		c1.9-1.8,3.7-3.9,5.3-6.3c17.9-26.3,5.1-52.7,5.3-52.8v0.1c-0.5-1.1-1.2-1.9-0.8,3.9c0,0,1.2,21.3-12.2,33.6c2-5,3.2-11,2.9-17.2
		c-0.7-17.3-5.6-17.6-5.4-16.2c-3.6,13.2-12.7,19.7-12.7,19.7s4.7,12.9,5,13.9c0,0-11.9,9-17.1-3.6c0,0,0-0.1-0.1-0.1
		c2.6-3,5.2-6.4,8-10.3c11.7-17.2,4.9-30.7,3.7-29.5c-4.5,15-11,16.4-12.1,17c0.1-11.8,14.6-21.3,19.5-31.8
		c9.1-19.5,0.1-26-0.4-25.7c0,0,1.1,5.9-2.4,13.9c0.1-2.7,0-5.9-0.4-6.5c-0.3-0.5-1.4-0.8-2.8-0.9c1.7-12.5-1.6-23.6-1.6-23.6
		c0.6,11.1-0.4,18.7-1.5,23.4c-1,0-2,0-2.7,0C205.5,8,192.8,2.7,192.8,2.7s4.9,32.4-4.9,55c0,0,2.8-3.8,5.4-11
		c0,0.5,0.1,0.9,0.3,1.3c1.1,2,3.3,0.6,3.3,0.6c0.5-0.5,0.7-0.3,0.7-0.1c0.9,4.7-5.5,9.6-5.5,9.6c0.5,0.2,3.9-1.2,5-3.1
		c1.4-2.1,1.9-4.8,1.6-7.2c-0.2-1.2-0.6-2.3-1.3-3.2c-1.3-1.7-2.4-1.7-3.1-1.1c1-3.5,1.9-7.6,2.5-12.3c2.7,0,6.5,0.2,7,1.2
		c0.8,1.5,1.1-8.8,0.4-10c-0.6-0.9-4.4-1.1-7-1.2c-0.2-4.2-0.6-10.5-0.6-10.5c5.1,2.3,8.8,9.4,10.3,12.7c-0.3,0-0.5,0-0.5,0l-0.4,10
		c0,0,6.5-0.3,8.8,0.6c-1.6,2.9-3.9,6-7.1,9.1c-0.1,0.1-0.1,0.1-0.2,0.2c0.3-2.7,0.3-7.6-0.2-8.4c-0.9-1.4-9.6-1.1-9.6-1.1l-0.4,10
		c0,0,6.9-0.3,9,0.7c-12.3,12.9-15.7,26.6-8.2,41.1c-0.7,1.4-18,15.3-20,34.8c-0.2,1.7-0.4,3.4-0.6,5c-1-4.6-1.6-7.4-1.6-7.4
		l1.8-6.1c-9-10.3-6.5-24.2-6.5-24.2c0,0-0.6,0.7-1.4,2.2c0.7-8.5-2.6-13.6-2.6-13.6c-2.1,14.9-13.6,25.3-17.1,28.2
		c3.7-7.6,5.6-14.8,2.5-19.9c0.5,1.8,0,8.7-17.5,34.1c-12.7,18.4-11.8,29-8.4,33.2c-9.6,2.9-5.3,19.6,2.3,24.7
		c5.5,3.6,3.7,0.5,3.1-0.2c-0.3-0.3-5.9-5.7-4.6-11.9c1.6-7.7,12.5-6.8,12.4,7.8c0,1.7-0.2,3.1-0.4,4.3c-1.1,5.1-0.9,9.9-0.4,13.2
		c0.5,3.1,1.1,5,1.1,5s1.2,4,3.3,8.9l-0.2,0.1c-0.3,0-0.6-0.1-1-0.2c-5.5-1.6-8.6-6.2-10.2-9.8c-0.4-1-0.8-2-1.1-2.9
		c-5.5-13.9-11.3-24.6-11.3-24.5l-3.6,8.3c0,0,11.9,22.9,15.7,40.4c1.5,7,0,11.5-3,13.7c-0.2-2.5-0.6-6.8-0.5-9.7
		c0.1-5,1.2-8.3,1.2-8.3c0-0.2-7.7,4-7.1,19.4c-0.8-0.1-1.7-0.3-2.5-0.6c0-0.1,0.1-0.3,0.1-0.4c9.1-33.2-4.8-53-11.3-60
		c1.5-0.8,4.1-1.8,6.3-0.8c0,0-2.4-5.1-8.8-5l-0.2,0.1c4.4-6.9,0.9-15.5,0.9-15.5c-0.8,3.6-3.5,6-5.7,7.3c-0.2-1.6-0.5-3.1-0.9-4.6
		c-0.4-1.3-0.8-2.5-1.1-3.6c3.8-14.7,13.2-15.7,13.2-15.7c-3.8-8.1-10.4-7.5-13.7-6.6c2.8-2.9,5.3-6.6,6.3-11
		c3.6-15.8-4-22.1-4.2-21.4c0.7,5.5-2.9,10.3-5.3,12.9c4.2-29.4-8.8-46.2-8.8-42.5c0.1,4.7,0.1,12.6-10.8,29.3
		c-1.1-9.9-2.1-17.8-0.1-19.4c3.9-3.3,6.6,2.8,6.6,2.8s0.6-4.5-1.6-9.1c-0.7-1.5-1.5-2.9-2.5-4.1c1.4-7.1,0.4-15.1,0.4-15.1
		c5.9,7.1,5.7,23.5,5.7,23.5c2.7-28.6-10-36.1-10.5-35.5c1.9,9.9,1.9,18.9,1.7,24.4c-0.2-0.2-0.5-0.3-0.7-0.4
		c-2.5-38.8-26.9-46-26.7-42.9c11.3,16.6,8.2,38,8.2,38C46.6,12.9,25.5,6.3,25.4,9c13.2,19.2,13.4,38.4,13.4,38.3
		C26.5,5.8,3.6,3.8,3.8,4.4C23,25.4,25,48.6,25,48.6C17.2,27.3,4,25.4,4.3,26c6.9,11.8,9.3,22.5,10.1,28.5c-9.6-7.8-13.3-6.8-13-5
		c0.1,0.7,0.9,1.7,0.9,1.7c0.1,0,12.2,14.2,15.7,55.5c0.1,1.2,0.2,2.3,0.3,3.4c-2.7-2.7-9.3-8.2-18-7.7c-2.6,0.2,11.4,4.6,17,25.4
		c0,0-6.9-3.4-15.1-0.5c0,0,12.4,9.7,26.1,23.5c14.1,14.1,27.3,35.1,28.8,49.2c-4.8-3.2-19.4,0.6-18.5,0.4
		c-9.8,2.5-18.1,7.6-23.8,12.2C1.7,223.5,6,232,6,232c-3.3,1.8-3.5,6.1-3.5,6.1s-2.3,5.2-1.5,9.9c2,11.4,13.6,11.4,13.1,10.5
		c0,0-1.5-0.8-2.5-4.2c-0.8-2.7-0.8-6.7,1.7-10.3c5.3-7.6,16.8-10.6,16.8-10.6c-1.7-0.2-11.1-0.1-18.1,8.3
		c-5.7,6.8-2.5,13.9-2.5,13.9c-9.2-5.5-5.3-15-5.3-15c0.1-0.3,0.1-0.1,0.1-0.1c1.1,1.2,2.3,1.2,2.3,1.2C3,238.4,7.3,234,7.3,234
		c1.2,1.7,4.8,1.9,4.8,1.9c-4-3.4-2.5-9.9-0.4-13.3c3-4.9,8.5-10.3,18.2-15.4c3.7-1.9,7.8-3.8,13.2-5.5c-8.1,12.1-4.6,20.1-0.7,19.4
		c3.6-0.6,4.4-7.1,3.4-7.9c0,0-0.7,3.5-3.1,3.2c-3.2-0.4-2.3-8.1,1.4-14.8c6.8-1.3,12-1.6,13-1.6c0,0.2,0,0.4,0,0.6
		c0.7,0.6,4.4-31.8-44.7-69.3c0,0,13,2.6,18.3,9.9c0,0-2.1-7.1-9.1-11.4l-0.2-3.3c4,8.7,14.3,4.3,12.6-3.1c-1.6-7-7.9-5.9-7.6-5.3
		c0,0,2.3,0.8,3,3.9c0.4,2-0.1,4.6-1.7,4.2c-6.2-1.3,1.1-34.9-13.8-62.9l0.4,0.3c17.7,19.8,20.7,64.6,28.3,85.4
		c4.4,12,10,20.5,16.1,26.5c-4.4,17.4,3.1,25.3,6.9,22.8c3.3-2.1,1.3-8.9,0-9.3c0,0,0.6,3.4-1.8,3.8c-4.3,0.7-6.1-8.2-4.7-16.9
		c3.1,3,6.3,5.3,9.5,7.1c0.1,0.5,0.2,1.1,0.3,1.6c4.3,22.2-7.9,47.5-43.4,54.3c-13.4,2.3-14.5,11.1-13.1,10.9
		c0.7-3.9,6.2-7.3,12.9-7.7c3.9,0,8.3-0.6,13.8-1.1c1.1-0.1,3.7,0,4.5,0.2c14.4,2.6,22.4,11.7,25.2,18.1c1.7,3.9,2,7.1,2,8.4
		c-0.8,2.3-1.8,4.6-2.9,6.9c-8.3,17-24.3,29.1-50,23.2c0,0-1,1.6,1.2,2.5l-0.4,0.6c-2.5,3.6-6.6,11.9,4,15.1c0,0-2.7-2.3-1.4-5.1
		c0,0,5.8,2.2,9.4-4c7.3-1.4,12.3,0.3,12.3,0.3s-2.7,3.9,3.8,11.1c0,0-0.8,3-5.2,2.3c0,0,2.9,3.6,6.4,1.6c7.8-4.6,1.5-16.5,2-18.5
		c0,0,3.5-3.1,6.5-3.9c4.2,1.5,8.2,2.1,12,1.9c0,0,4.4,0.7,5.3,4.6c0,0,2-1.2,0.3-4.8c4.1-0.7,11.9-5,15.9-9.5
		c3,0.4,4.4-2.1,4.4-2.1c-1,0.6-1.9,0.5-2.5-0.2c4.2-5.3,5.4-13.3,5.4-18.6c0.4-0.5,0.9-1,1.3-1.5c4-5.1,7.2-10.3,7.2-5.5
		c0,2.9-0.1,5.3,0.4,7.4c2.2,9.5,8.9,12,12.4,10.1c6-3.3,5.4-15.8,4.6-20.9c-1.2-8.7-3.6-14.6-8.3-21.2c0,0-0.1-0.1-0.1-0.1
		c0.4-0.6,0.8-1.1,1.2-1.7c2.7,2.6,5.4,4.1,8.1,4.7c0.4,2.2,0.9,4.7,1.5,7.3c8.1,36.9-17.1,60.7-64.1,72c0,0,1.1,1.6,3.7,1.9
		c0,0-6,6.3-2.8,13.3c0,0,3.2,7.1,10.2,5.8c0,0-4-1.4-4.6-5.3c6.3-0.5,6.4-7.6,6.4-7.6s5.8-6.1,12.7-4.3c0,0,2.2,5.9,8.8,8.8
		c0,0,0.7,4.6-4.5,4.2c0,0,3.1,3.2,7.1-0.6c6.5-6.2-3.6-15-3.2-14.2c0,0-4.9-3.3,7-8.2c7.1,2.6,14,1.9,20.1,0.3
		c-4.1,5.1-2.2,10.2-2.2,10.2c1.9-8.1,8-12.1,9.1-12.8c6.1-3.1,11.2-7.8,14.5-13.3c1.1,1.8,0.2,4.4,0.2,4.4c2-2.7,1.7-6,1.4-7.5
		c1.3-2.8,2.2-5.7,2.5-8.6c13.9-5.1,34.2-17.7,58.2-25c12.5-3.8,18.3-2.8,18.3-2.8l3.1-9.6c-6.4-1.7-19.6,2.2-21.9,2.9
		c-11.8,3.7-17.8,5.7-30.7,3.4c4.6-3,8.1-3.5,10.2-3.2c3.2,0.4,3.7,2.9,3.7,2.9s3.5-7.3,1.1-10.6c-5-6.7-16.3,2.8-23.2,9.2
		c-4.1-0.7-7.6-0.9-10.6-0.6c0.3-0.8,2.4-6.5,3.2-9.5c0.8-3.2-8.9-5.1-8.9-5.1l-3.2,9.6c0,0,9.5,1.9,8.9,5.1
		c-7.8,0.7-11.9,4.6-11.6,10.5c0.2,5.2,4.4,7.1,9,6.5c4-0.5,9.8-4,14.3-8.7c0.7-0.7,1.4-1.4,2.1-2c4.4,1.3,8.6,1.7,12.2,1.7
		c-4.1,1.6-9.5,4-15.8,7.6c-7.2,4.1-14.2,7.2-19.4,8.3c-0.2-0.7-0.5-1.4-0.8-2.1c-7.1-15.6-17.7-1.1-16.2,7.7
		c-0.9,1.5-2.2,4.2-3.1,7.7c-1.2,4.8,1,7.8,3.3,7.5c3.3-0.4,4.1-6.5,3.2-7.4c0,0-0.4,3.3-2.7,3c-2.8-0.4-2.4-4.9-0.4-9.7
		c0.2,0.8,0.6,1.5,1.1,2.1c2.7,3.3,7.1,3.5,12.9,1.8c-4.6,16.6-33.4,23.1-41,24.6c18.3-11.6,26.1-32,27.7-42.7
		c2-12.9,1.1-22-0.2-29.7c3.6-1.7,6.5-5.4,7.9-10.9c10.8-0.9,19-4.1,25.3-8.8c12.5,2.6,17.9-5.7,17.9-5.7c-2.6,1.6-5.8,0.4-5.8,0.4
		c10.9-5.4,7.7-20,7.7-20c9.1-6.4,2.2-21.1,2.2-21.1s3.7,16.4-4.7,19.1c3.5-14,2.5-28.2,1.7-35.3c-0.7-6.1-1.5-11.9-2.4-17.2
		c1.5,3.2,3.5,5.8,6,7.9c-4,8.5-0.8,13.3,1.5,12.4c2-0.8,1.6-4.5,1-4.9c0,0,0,2-1.4,2.2c-2,0.2-2.4-5.1-0.8-9.5
		c13.3,11.3,38.2,8.5,50.8-2.4C253.5,134.2,255.5,101.5,252.5,106.8L252.5,106.8z M101.3,158.3c2.7-1.1,4.3-3.4,4.3-3.4
		c0.2,4.7-2.3,7.3-4.4,8.7C101.4,161.7,101.4,160,101.3,158.3L101.3,158.3z M100.8,168.3c1.5-0.9,2.7-1.9,3.7-2.9
		c1.4-0.3,5.2-0.8,7.3,1.6c0,0-2.4,0.4-3.7,1.8c-1.5-1.5-2.5-2.3-2.5-2.3c0,0-2.2,6.5-3.3,16.4c-1.5,0.4-3,0.7-4.4,0.9
		C98.9,178.5,100.1,173.3,100.8,168.3L100.8,168.3z M108.6,227.3c0.6,1.3,1.2,2.5,1.9,3.6c-0.2,0.4-0.5,0.7-0.8,1.1
		c-3-5.2-4.3-8.6-4.3-8.6l0.1-4.1C106.3,222,107.3,224.6,108.6,227.3L108.6,227.3z M101.6,233.2c-2.7-2.9-5.5-7.5-7.1-14.5
		c-2.2-9.4,0-20.3,2.4-31.1c1.6-0.4,3.1-0.8,4.3-1.3c0.2-0.1,0.4-0.2,0.7-0.3c-0.7,8.4-0.4,18.8,2.4,29.5
		c-5.8-4.6-5.3-15.7-5.3-15.7S92.3,214.3,101.6,233.2L101.6,233.2z M107.4,129.6c-6,1.5-9.3,7.7-10.8,11.6c-3-5.9-5.7-7-5.7-7
		c0.2,16.7-6.6,24.1-6.6,24.1l7.2,10.7c-0.9,3.6-2.4,8.6-3.7,14.5c-5-0.9-9.7-3.1-13.9-6.2c-0.6-15.7,9-31.8,13.1-42.1
		c0,0,0.4-1,0.9-2.5c1.1-0.6,2.9-1.5,5-2.9C102.4,124.5,107.4,129.6,107.4,129.6L107.4,129.6z M94.2,111.9
		c7.5-4.9,7.9-11.5,7.9-11.5c2.7,14.4-8.7,25.8-13.7,30.5c1-3,2.3-6.8,2.9-8.7C92.5,118.6,93.4,115.2,94.2,111.9L94.2,111.9z
		 M67.5,171.6c-6.4-6.9-11.3-16-14.3-25.9C42.2,109.2,38,76.6,19.4,59c-0.9-0.9-1.8-1.7-2.6-2.4c0.9-11.9-5.3-24-5.3-24
		c10,8.6,15.6,30.7,15.6,30.7c6.5-23.4-10.4-47.8-10.4-47.8C31.9,27.3,41,63.8,41,63.8C46.6,35.3,34,18,34,18
		C47.5,29.9,53.2,51.6,55.2,61c-3.2-0.2-10.3,1.9-10.3,1.9l2.5,11.9c0,0,10.3-3,11.6-1.5c1.1,1.3-0.4-6.5-1.7-10.2
		c8-16.9-1.3-40.6-1.3-40.6C67.6,32.7,69.9,50,70.3,58.3c-0.6,0.1-1.2,0.4-1.9,0.7c-3.6,1.9-4.2,9.4-1.8,22.3
		c1.1,5.9,2.2,12.8,2.9,19.5c-1.5,2-3.1,4-4.8,6.2c-21.1,26.2-3.3,38.7,6.5,30c6.9-6.2,6.9-20.7,5.7-34.5
		c6.5-9.7,11.2-19.4,11.6-23.3c0,0,4.1,13.9-10,50.6C72.6,145.3,66.4,153.3,67.5,171.6L67.5,171.6z M66.2,129.8
		c-4.1,4.8-11.9,0.4,1.3-14.9c0.9-1.1,1.8-2.2,2.7-3.3C70.3,119.5,69.2,126.2,66.2,129.8z M63.2,242.9c0.1,1,0.3,2,0.5,2.8
		c0,0,0,0,0,0c-6.1-5.1-13.7-6.3-17.2-5.9c6.3-1.5,12.4-3.8,17.5-8.4C63.3,233.5,62.8,237.7,63.2,242.9z M68.4,251L68.4,251
		c0.8,0.1,1.5,0.1,2.1-0.2c4-1.9,2.2-9.8,0.8-10.5c0,0,0.9,4.3-2.1,4.8c-3.9,0.8-5.2-5.8-4.5-13c0.1-0.7,0.1-1.2,0-1.5
		C75.8,220,79,203,75.2,186c4,1.4,7.9,2.1,11.6,2.3c-1.8,10-2.5,21.8,1.3,32.5c3.7,10.5,11,15.3,16.2,17.2c0.1,0.1,0.2,0.3,0.2,0.4
		c-2.9,3.2-6,6-9.1,8.4c1-1.5,3.2-9.2,2.8-10.4c-0.5-1.5-7.6-3.3-9.4-3.8c0-2.6-1.1-12.9-6.2-13.1c-6.8-0.2-7.4,17.2-7.6,26.4
		c-0.2,12.6-2.3,17.7-2.3,17.7C72.1,258.4,70.6,254.2,68.4,251L68.4,251z M81.3,247.2c-0.3-16,3.1-17,4.6-17
		c1.5-0.1,2.3,1.4,2.7,2.3c-0.1,0-0.1,0-0.1,0L85.2,243c0,0,9.4,2.1,9.8,3.9c0,0.1,0,0.2,0.1,0.2c-5.4,4.3-10.6,7.5-14,9.3
		C81.3,253.1,81.3,250,81.3,247.2L81.3,247.2z M75.9,294.1c-6.2,2.9-13,3.6-17.6,3.9c16.3-7.6,21.4-25,22.7-39.6
		c1.7-0.1,3.4-0.3,5.1-0.6c-4.2,2.1-6.3,10.3-4.2,15.1c-1.2,1.1-3.5,4.1-5.3,8.4c-2.2,5-0.2,8.7,2.3,8.8c3.7,0.2,5.6-6.4,4.8-7.4
		c0,0-1,3.5-3.5,2.8c-3.2-1-1.5-6.4,1.8-11.4c0.1-0.2,0.2-0.3,0.3-0.5c0.4,0.7,0.9,1.3,1.6,1.8c3,2.2,6.9,1.4,10.5-1.3
		C92.4,283.2,83.4,290.6,75.9,294.1L75.9,294.1z M115.3,272c-3.4,0.5-6.8-1.9-6-9.8c0,0,0.8-7.1-1.4-9.2c-3.5-3.4-7.9,3.9-12.8,9.8
		c-0.5-1-1.2-1.8-1.9-2.6c-1.8-1.9-3.5-2.7-5-2.7c7.7-1.9,15.3-6.2,21.3-11.9C124.4,266.1,118.2,271.6,115.3,272L115.3,272z
		 M113.7,225.4c-0.4-0.4-0.8-0.9-1.1-1.4c-6.6-9.4-7.3-32.2-3.1-40.6c5,5,9.3,13.2,9.2,22.3C118.7,213,116.8,219.5,113.7,225.4z
		 M148,263.9c0.1-2.7,5.7-5,14.2-4C153.7,266.7,147.9,266.6,148,263.9z M212.8,115.8c2.6-0.1,5.5-1.7,8.1-4.5l-0.3,0.8
		c0,0,20.8-9.3,20.8-38.5c3.9,18.1-4.7,35.6-13.1,44.3c-1.3,1.4-2.7,2.6-4.2,3.9C217.2,120.1,212.4,116,212.8,115.8L212.8,115.8z
		 M154,103.5c7-3.8,11.3-12,11.3-12c0.5,7-4.2,12.8-4.2,12.8l5-2.2c0.2-0.3,0.3-0.7,0.4-1c-0.3,2.5-0.4,5.4-0.2,8.7
		c0.3,6.1,2.3,14.1,4.9,23c0.2,0.8,0.5,1.6,0.7,2.4c-0.9,0.6-1.9,1.2-2.9,1.5c-1.1-3.2-2.2-6.1-3.4-8.9l1.8-6c0,0-9.4-8.5-7.4-21.5
		c0,0-10.1,8.8,0.8,35.4c-1-0.6-2-1.4-3-2.5C151.1,125.9,152.1,109.3,154,103.5L154,103.5z M128.2,151.4c-0.1-0.2-0.1-0.3-0.1-0.3
		s-3.2-6.5,5.5-20.3c4.4-7,11.6-16.5,16.1-25.7c0.8-0.2,1.6-0.4,2.4-0.7c-5.1,11.1-6.3,38.1,8.9,43.1c1.7,0.5,3.3,0.9,4.8,1
		c6.4,20.6,2,34.9-1.5,41c1.6-8.2,0.1-23.6-5.9-28.7c-3.5-3-10.2-0.9-14.8,5.6C141.8,158.7,136,150.4,128.2,151.4L128.2,151.4z
		 M156.2,190c-0.8,2.1-1.7,4-2.6,5.6c-0.6,1.1-1.3,2.1-2,3c-1.5,1.9-3.1,3.5-4.8,4.3c-0.1-0.4-0.3-0.8-0.4-1.2
		c-1.6-4.4-2.4-8.6-2.2-12.1c0-0.4,0.1-0.9,0.1-1.3c1-7.3,10.7-21.5,14.3-17.6C160.4,172.9,159.1,182.3,156.2,190z M139.2,228.1
		c0.5-4.1,0.3-9.1-1-14.6c-0.1-0.6-0.3-1.1-0.4-1.7c2.2,1.9,5.9,3.8,11.3,2.8c1.3,2,2.8,3.8,4.3,5.2
		C149.1,222.7,144.4,225.5,139.2,228.1L139.2,228.1z M155.2,218.3c-0.9-1.4-2-3-3-4.7c1.5-0.6,3.1-1.3,4.9-2.4
		c0,0,17.3-5.5,17.5-38.7c0.1-9.9-0.9-18-2.4-24.9c0.9-0.4,1.8-0.9,2.6-1.6c1.4,5.8,2.4,11.7,3.2,17.4
		C180.6,184.6,174.1,203.7,155.2,218.3z M180.8,196.3c1.2,3.2,3.3,12-5.7,18.6l-2.3,1.3c0.7,2.6,3.7,2.9,3.7,2.9
		c-4.6,1.8-7.8,1.2-9.5,0.6C174.2,213.3,178.4,204.9,180.8,196.3z M210.1,148.7c-16.5,2.2-26.9-5.2-29.6-11.5
		c1.2-3.4,2.1-7.7,2.7-12.8c0.7-7.1,3.9-12.1,8.4-17.5c-4.5,13.4,0.8,20.7,4.7,19.1c3.7-1.5,3.1-8.6,1.8-9.3c0,0,0,3.9-2.7,4.1
		c-3.4,0.3-4.3-8-2.2-15.8c1.8-2.1,3.8-4.3,5.9-6.7c-1.6,4-3.2,20,14.7,30.3c-3.6,2-7,3.5-9.4,4.5c-0.1-1.2-0.2-2.1-0.4-2.4
		c-1.1-1.8-11.8-1.6-11.8-1.6l-0.7,12.4c0,0,10.9-0.3,11.8,1.6c0.6,1.2,1.1-3.7,1.1-7.7c3.4-0.6,8.4-2,13.8-4.7
		c7.1,2.7,13.8,2.3,19.6,0.5C237.9,131.1,227.7,146.4,210.1,148.7L210.1,148.7z"/>
	<path class="st1" d="M108.9,197.6c0,0,8.2,6.4,4.2,20.8c0.2,2.4,8.3-15.4-3.6-27.4C109.2,191.5,108.9,197.6,108.9,197.6z"/>
</g>
</svg>
