<?xml version="1.0" encoding="utf-8"?>
<!-- Generator: Adobe Illustrator 26.3.1, SVG Export Plug-In . SVG Version: 6.00 Build 0)  -->
<svg version="1.1" id="Layer_1" xmlns="http://www.w3.org/2000/svg" xmlns:xlink="http://www.w3.org/1999/xlink" x="0px" y="0px"
	 viewBox="0 0 433 332.3" style="enable-background:new 0 0 433 332.3;" xml:space="preserve">
<style type="text/css">
	.st0{opacity:0.2;}
	.st1{fill:#0B0B0B;}
</style>
<g class="st0">
	<path class="st1" d="M202.2,119.4l-2.7,9.6c0,0,7.9,2.9,8.1,4.3c0.3,1.4,3-8.2,2.7-9.6C210.1,122.3,202.2,119.4,202.2,119.4z"/>
	<path class="st1" d="M134.6,76.2c-1,0.9,8.2-1.5,9.3-2.4c1-0.9-1-9.3-1-9.3l-9.3,2.4C133.6,66.8,135.6,75.3,134.6,76.2z"/>
	<path class="st1" d="M209.7,47.7l-2.7,9.6c0,0,7.9,2.9,8.1,4.3c0.3,1.4,3-8.2,2.7-9.6C217.5,50.6,209.7,47.7,209.7,47.7z"/>
	<path class="st1" d="M146.6,81.1c-1.5,0.6-5.5-1.4-7-2.9c-1.3-1.4-1-0.5-1-0.5c3.6,7.1,15.5,6.4,14,5c-2.8-2.5-5.3-6.2-5.8-6
		c-0.5,0.2-3.5,0.6-3.5,0.6C144.6,80.2,146.3,80.6,146.6,81.1L146.6,81.1z"/>
	<path class="st1" d="M206.3,89.1c-4.5,13.3,2.7,13.1,3.2,10.5c0.6-2.5-0.9-4.7-0.9-4.7s-0.3-0.7,0,0.8c0.3,1.4-0.1,2.3-0.9,2.4
		c-1,0.1-2.9-2-1.2-8.7C206.5,89.5,207,87.3,206.3,89.1L206.3,89.1z"/>
	<path class="st1" d="M233.1,61.4c0.1,0,0.1-0.1,0.2-0.1C233.2,61.3,233.2,61.4,233.1,61.4z"/>
	<path class="st1" d="M233.3,61.3c1.8-1.4,18.1-10.1,13.7-24.9c-0.8-2.5-1.9-4.9-3.5-6c-2.3-1.6-6.6,11.6-6.6,11.6l3.4,6.6
		c0.2-1.3,2.9-8.8,4.7-10C245.2,38.2,246.9,49.1,233.3,61.3z"/>
	<path class="st1" d="M182.8,37.3c-3-3.6-7.8-2.8-6.7,2.8c1.1,5.6,6.8,2.6,6.8,2.6s5.6,6,5.8,3c0.2-2.8-3.4-11-2.6-14.4
		c0.7-2.6,2.3-0.5,2.3-0.5s0.5-4.3-1.7-6.6c-2.2-2.4-6.1,1.7-1.6,14.7C185.1,38.8,185.8,40.9,182.8,37.3z"/>
	<path class="st1" d="M252.2,92.7l2.3,3.3c15.2-15.1,9.9-37.2,9.9-37.2c-0.9-2.1-0.7,0-0.7,0C265.9,84,252.2,92.7,252.2,92.7z"/>
	<path class="st1" d="M325.1,48.3l0.3-1.8c0,0-3.2-4.3-9.3-0.5l0.5,4C316.5,50,319.2,45.5,325.1,48.3z"/>
	<path class="st1" d="M305.7,64.8c1.8-0.4,4.2-0.5,4.6,0.8c0.5-1.7-0.3-8.3-0.9-9.3c-0.4-1.3-2.2-1.3-4-0.9c-2,0.4-4,1.3-4,1.3
		l-0.8,0.4l1.2,8.9C301.7,66,303.7,65.2,305.7,64.8L305.7,64.8z"/>
	<path class="st1" d="M67.5,81.7c5.8,2.8,16.1,1.8,22.7,0.1c9.3-2.5,17.1-8.1,18.3-9.8c0.8-1.1,1.4-2.5,1.4-4.1
		c0-3.8-2.6-7.1-6.4-7.7c-1.2-0.2-2.7,0-4.4,0.8c-3.9,1.9-10.5,7.4-17,12.2c-3.8,2.4-8.7,3.9-13,2.8c-5.6-1.4-10.4,0.3-9.6,0.5
		C62.4,77.5,64.3,80.1,67.5,81.7L67.5,81.7z"/>
	<path class="st1" d="M356.5,111.3c-1.6,1.6-3.9,8,0.9,14.4c10.8,12.2,35.5,27.7,49.6,19.8c4-2.3,6.1-0.9,6.1-0.9s-0.7-4.3-5.3-5.1
		c-7-1.2-21.4-2.3-39.7-26.7C365.7,109.4,360.4,107.3,356.5,111.3L356.5,111.3z"/>
	<path class="st1" d="M333.6,89.2c-5.6,2.5-4.3,7.6-4.3,7.6c3.3-6.6,8.5-3.9,9.2-4.6c0.8-0.7,1.8-3.4,1.8-3.4S336.9,87.7,333.6,89.2
		z"/>
	<path class="st1" d="M315.2,109.5c7.4-2.6,5.3-13.1,4.4-13.9c-0.7-0.6-6.2,6.3-6.2,6.3s0.6,1.1,1.2,2.9c0.6,1.8,4-3.1,4-3.1
		C318.5,107.2,314.2,109.7,315.2,109.5z"/>
	<path class="st1" d="M291.6,92.2c-2.3,8.2-12,19.1-12,19.1l-1.7,6.9c18.2-21.2,14.6-27.3,14.6-27.3
		C292.2,89.9,291.6,92.2,291.6,92.2z"/>
	<path class="st1" d="M267.5,149.7c0.1,0.2,0.1,0.3,0.1,0.3S267.6,149.9,267.5,149.7z"/>
	<path class="st1" d="M292.9,119.5c0,0-12.9,12.2-20.8,18.7c-6.9,5.6-5.2,10.4-4.6,11.6c-0.3-0.8-0.4-3.3,5.9-8.8
		c7.8-6.8,14.1-13.5,14.1-13.5s-1.5,4.2-2.2,5.7C285.3,133.2,292.3,124.7,292.9,119.5L292.9,119.5z"/>
	<path class="st1" d="M238,143.6c-0.8,0.5-3.3-0.4-4.7-6.9c0,0-0.5-2.1-0.3-0.2c1.8,13.3,7.9,10,7.3,7.6c-0.6-2.4-2.8-3.7-2.8-3.7
		s-0.6-0.4,0.3,0.7C238.6,142.3,238.7,143.2,238,143.6L238,143.6z"/>
	<path class="st1" d="M132,130.8l3.1-0.8c0,0-5.9-10-18.7-13.5l-2.5,0C113.9,116.5,128.8,122.4,132,130.8z"/>
	<path class="st1" d="M111.7,117.6c0,0,13.2,6.5,16,14.3l3.1-0.8c0,0-5.2-8.8-17.5-13.7L111.7,117.6z"/>
	<path class="st1" d="M150.4,132.7c0,0,0.6-0.4,1-1.6c0.4-1.3-4.9-4.7-5.5-4.7C150.2,129.7,150.1,132.7,150.4,132.7z"/>
	<path class="st1" d="M362.7,158.8c0,0,6.9-9.3,3.2-14.8c-2.6-4-11.6-4.6-27,2c-4.9,1.7-9,1.6-8.8,0.3c0.4-2.1,4.6-5.6,9.3-6.1
		c4.7-0.5,3.1,2.7,3.1,2.7s6.5-4.5,1.7-7.6c-4.6-3-16.4,3.7-16.8,12.1c-0.1,1.7,0.6,2.8,1.8,3.4c-3.4,1.8-7,3.9-10.9,6.4
		c-21.2,13.4-39,22.2-54.6,23c-3.8,0.2-7.4-0.1-10.9-0.8c0,0,0-0.1,0.1-0.1c0.5-1.6-0.5-6.6,0.5-8.4c0.7-1.4,1.3,0,1.3,0
		s0.8-2.3-0.1-3.9c-0.9-1.6-3.6,0.8-2.8,8.7c0,0-0.7-1-2-3.2c-1.3-2.3-4-2.6-4.1,0.7c-0.1,3.3,3.5,2.3,3.5,2.3s1.6,2.6,2.7,3.7
		c-9.9-2.5-18.2-9.1-22.6-20.3c-9.2-23.7-10.6-33.2-12.7-38.7c0.9,0,1.8,0,2.7,0c1,2.9,2.3,7.3,4.2,13.8c5.8,20.5,9.1,32.5,31,31.7
		c4.8-0.2,9.2-1.5,13.3-3.5c-13.4,11.6-4.2,17.7-0.7,14.9c4-3.2,4.5-8.4,4.5-8.4s0.3-1.5-1.1,1.2c-1.3,2.5-3,3.4-4.4,2.5
		c-1.7-1.1-2.1-6.3,7.9-14.1c9.7-7.2,17.3-18.3,22.8-27.5l0.9,5.2c0,0,6.6-0.6,7.2,0.3c0.6,0.8-0.4-5.5-1.1-7.3
		c1-0.1,7.1-0.5,7.8,0.4c0.7,1-0.7-7.5-1.4-8.5c-0.6-0.9-6-0.5-7.5-0.4c1.7-2.9,2.9-4.9,3.8-5.6c3.3-2.5,1,6.1,8,6.9
		c7.1,0.9,10.9-13,11.1-15.2c0.2-2.2,0.6,2.6,4.9,2.4c4.9-0.3,9.8-10.6,13.3-8.4c2.3,1.4,1.5,3.7,1.5,3.7l1.2-1.8
		c0,0,3.9-8.4-0.6-11.6c-5.2-3.7-10.9,10.1-15.7,7.8c-3.3-1.6-2.6-10.3-2.6-10.3s-0.1-4.3-5.6,5.7c0,0,0.5,6.6,0.6,9.6
		c0.1,3-3.9,9.8-8.4,7.1c-1.6-0.9-1.2-4.6-3.3-6.2c-2.1-1.6-5.6,0.6-12,11.3c-8,13.4-25.9,39.5-45.8,39.9
		c-19.9,0.4-24.1-21-27.4-36.2c1.6-0.2,3.2-0.4,4.8-0.6c0,6.4,1.3,13,4.8,17.3c2.8,3.4,7,6.2,12.1,6.4l-4.8,6.2c0,0,5.4,4.8,5.1,6
		c-0.2,1.2,5-5.6,5.3-6.8c0.2-0.9-3-4.1-4.4-5.4c9.5-0.3,21.7-9.4,33.4-38.2c7.4-18.3,12.7-31.8,16.1-30.7
		c-5.5,5.5-7.9,16.2-2.9,17.8c4.8,1.5,5.6-7.5,5.6-7.5c0.2-0.7-2,4.6-4.9,2.2c-3.5-2.9,1.4-9.9,2.9-12c0.2,0.2,0.4,0.4,0.5,0.7
		c2.2,3.5,5.1,5.6,9,4.7c9.9-2.2,7.5-14.5,8.7-13.5c1.7,1.3,3.1,1.4,4,1.4c6.6,0,7.1-6.8,7.5-8.3c0.9-2.8,3.4-1.1,3.4,2.1
		c0,1.7,0.5,0.5,0.5,0.5s2.3-4.6-0.3-9.7c-2.6-5.1-6-5.1-8,1.1c-1.6,4.9-5.7,6.5-7.2,2c-1.6-5.1-2.7-10.1-2.7-10.1s-1.3-2.6-4.5,7
		c0,0,2.7,9.2,2.9,10.2c0.2,0.9-1,7.1-6.4,7.7c-5.4,0.6-5.5-7.3-10-6.6c-6.1,0.6-10.1,12.9-22.5,38.4c-12.4,25.3-26.8,36-34,28.1
		c-3.4-3.7-4.9-8.1-5.5-11.9c45-10.5,37.7-65.1,37.2-65.2l2.9-3.6c-8.2-6.7-9.7-19.9-9.7-19.9c-5.8,8.6-1.5,17.9,0.7,26.3
		c8.2,31.5-13.5,48.4-31.4,56.8c0-1.9,0.3-3.3,0.3-3.8c1.5,0.6,3.5-0.2,4.9-2.4c4-6.2,0.8-10.8,0.6-10.6c0.7,7.5-5.6,12.3-5.4,8.8
		c0.1-2.4,1.9-5.7,2.2-6.4c0,0-1.3-3-1.3-3c-0.1,0.1-0.2,0.3-0.2,0.4c0,0,0,0,0,0c-3.9,7.7-6.5,6.7-5.6,3.9c1-2.9,2.4-1.7,2.5-1.4
		c0,0,0.3-0.7,0-1.4c-0.3-0.8-1.2-1.5-2.5-1c-1.8,0.7-2.5,6.1-0.8,7.7c0.7,0.7,1.9,0.8,3.3,0.1c-0.1,1-0.1,1.9,0.1,2.7
		c-0.6,2.3-1.1,4.9-1.3,7.7c-0.8,0.3-1.5,0.6-2.3,0.9c0.7-2,1-5.9-3.1-12.2l-1,2.2c0,0,4.5,4.8,3.5,10.2c-0.3,0.1-0.6,0.2-1,0.4
		c0.6-1.6,0.9-5.2-3.5-10.2l-0.4,2.6c0,0,3.8,2.8,3.5,7.8c-0.5,0.2-1.1,0.4-1.6,0.6c-1.2-5.1-2.4-9.1-4.3-10.7c0,0-1.8-1.9-3.7,8.5
		c0,0,0.3-0.3,1.9,4.2c-0.9,0.3-1.8,0.5-2.5,0.7c-0.5-1.1-1-2-1.7-2.9c0,0-2.4-0.5-3.3,10.2c0,0,3.9,12.6,7.5,23.4
		c-4,7.4-9.3,21.9,3.6,31.5c11.2,8.3,19,14.1,21.4,21.5c-0.7-1.8-4.8-6.9-22.4-18.4c-7.2-4.7-12.4-10.1-16-15.8
		c2.6-3.5,10.6-16.9-2.6-36.4l-1.4,9.4c0,0,9.7,11.9,3.9,26.7c-7.1-11.6-7.6-24.7-4.4-37.3c0,0-7.2,5-5.7,26.7
		c0.3,4.6,1.9,10.3,4.9,15.8c-6.1,5.6-10.6,10.8-13.8,15.5c2.3-6.9,3.9-16.8,1.8-28.8c-1.5-8.4-2-14.3-2-18.4c3.9-0.3,7.2-2,9.1-5
		c3.6-6,4-14.6,2-24.2c3.1-3.4,3-8.9,4-5.5c1.2,4.1,3.1,7.3,6.1,8c9.2,2.1,7.2-13.5,8.2-12.7c8,7,11.8-1.1,12.3-7.5
		c0.2-2.3-0.2-4,1.5-2.6c6.1,5,13.3,2.2,16.9-7.2h0c-0.1,0.2-0.2,0.5-0.3,0.9c-4.3,17.6,4.2,15.9,5.4,12.8c1.3-3.2-1.5-6-1.6-5.9
		c0,0-0.4-0.8,0.2,1.1c0.5,1.7,0.2,3-1.1,3.1c-1.7,0.2-4.1-2-2.4-10.9c0,0,0.1-0.5,0.1-0.9c0.3,0,0.6,0.1,0.9,0.1
		c23.1,3.3,14.6-39.5,11.1-48.8c-2.1-5.6-0.3-11.5-0.3-11.5c-13.6-5.8-15-13.3-15-13.3s-3.8,6.1,9.8,29.7
		c12.7,22.1,1.2,33.5-4.5,34.7c2.5-12.5,6.2-16.5,6.2-17.3c0-0.9-3.1-14.9-3.1-14.9c-9.6,17.2-27.7,25.5-27.7,25.5l2.6,7.8
		c6.7,1.2,9.2,3.2,12.1,4.9c-1.4,1.5-3.1,2.3-5.6,1.8c-4.8-1-5.8-6.5-8-5.6c-2.4,1-0.8,19.7-7.5,14c-2-1.7-4.4-8.9-7-18.2
		c2-0.5,3.9-1.3,5.7-2.4c0,0.1-0.1,0.2-0.1,0.3c-4.3,17.5,4.6,16.3,5.3,13.1c0.8-3.8-1.4-6.2-1.6-5.9c0,0-0.5-0.9,0,1.1
		c0.5,1.7,0.1,2.9-0.9,3.1c-1.3,0.2-3.9-2.2-2.4-10.9c0,0,0.1-0.5,0.1-0.8c18.9-11.4,24.6-48.8,24-47.4l-1.6-5.3
		c-7.4,31.6-23,48.4-28.9,53.8c-1.9-7.1-3.9-15.2-5.9-23.2c5.4-4.7,10.5-10.7,14.6-16.9c1.2-1.8,2.3-3.4,3.4-4.9
		c-9.5,20.3-0.9,25,2.5,23.1c4.2-2.4,2.3-10.5,2.3-10.5c-0.3,1.2-1.6,3.6-3.6,3.1c-3.2-0.8-3.3-7.8-0.9-13.9c1-2.3,1.3-3.5,1.3-4
		c9.8-12.3,13.1-8.2,13.1-8.2s2.5-6.4,0.9-10.4c-1.6-4-10.4,2.4-23.1,19.6c-4.3,5.9-8.7,10.5-12.8,14.1c-0.4-1.5-0.8-3-1.2-4.5
		c4.7-2.1,12.3-7.2,12.8-19.8c0.1-3.5-0.2-6.6-1.4-9c-0.1-0.2-0.3-0.3-0.6-0.3c8.4-0.9,13.4,2.5,13.4,2.5l5.1-4.6
		c-4.6-4.8-13.7-5.4-14.1-5.1c-15.3,2.2-23,15.2-22.5,14.8c6.6-4.9,12.5-6.9,17.3-7.5c-3.5,0.9-12.7,8.8-12.7,8.8l-0.9,8.3
		c-1.3-3.6-2.5-6.5-3.7-8.4c-1.5-1.4-3.9,8.5-3.9,8.5c2.5,4.2,4.9,11.6,7.3,20.1c-4.9,3.3-9.4,4.9-13.1,5c-8.8,0.4-18.3-16.1,4.8-31
		c0,0,4.4-3.8-0.6-1.3c-6.7,3.4-12.5,10-15.3,17.3c-19,26-10.7,54.1,0,50.7c10.7-3.5,3.2-19.9,3.3-19.7c0.9,7.3-6.7,14.4-10.1,1.7
		c-2.7-10.2,2.4-21.4,5.3-26.6c-0.4,3.6,0.1,7.2,1.8,10.6c5.6,11.2,16.1,9.5,26.3,2.3c3.3,13.1,6.7,27.5,10.3,37.3
		c2.3,6.3,4.3,13.4-1.2,13.6c-5.5,0.3-3.9-13.2-6.6-13.7c-2.8-0.5-3.6,6.7-7.4,11.5c-1.2-3.1-2.6-6.3-4.2-9.4
		c10.7-4.9,10.5-24.3,2.9-30.6c-8.1-6.6-8.7,8.2-5.9,11.8c2.9,3.6,6.5-0.4,7.2-1.1c0.7-0.7,1.2-0.5,1.2-0.5l0.2,0.4
		c1.5,6.6-3.6,15.1-6.1,18.9c-3.9-7.7-4.5-14-4.3-15.9c0.3-3.1-0.8-2.6-0.8-2.6s-5.3,6.5-3.5,15.9c-7.4,10.1-4.8,28.7,7.6,27.3
		c0,0,1.9,0.1,4.3-0.9c1,4.2,0.4,8.1-2.6,12.2c-6.1,8.4-28.2,1.9-26.8-19.7c8.3,9.1,4.1,13.4,4.1,13.4s9,3.9,11.1-0.6
		c2.1-4.6-10.6-22.1-29.1-33.5c-23.8-14.6-38.3-37.6-28-39.4c4.7,0.1,6.7,5.5,7.4,9.3l-2.7,0.7c0,0,2,8.5,1,9.3
		c-1,0.9,8.2-1.5,9.3-2.4c1-0.9-1-9.3-1-9.3l-3.7,1c-1.5-9.4-9-13.2-13.5-12.4c-5.1,0.9-8.3,4.8-8.2,12.5
		c0.1,7.7,7.9,20.4,36.8,38.5c5.1,3.2,9,6,12,8.6c-9.7-1.5-11.5,4-8.9,6.3c3.2,2.8,7.9,0.5,7.9,0.5s-3.8-0.4-4.3-2.7
		c-0.4-1.7,3-3,6.7-2.8c0.2,0.2,0.4,0.3,0.6,0.5c-2.5,22.3,9.9,34,20.8,35.9c-0.5,1.3-0.9,2.7-1.2,4.3c-2,0.6-7,2.8-9.1,9.8
		c-2.9,9.4,2.2,16.5,11,16.4c0.2,4.2,0.1,7.1-0.1,8.9c0,0.3-3.3-4.3-20.2-10.7c11.3-7.3,8.7-23,1.3-31c-7.3-7.9-5.3-10.7-5.2-10.7
		c0.2-0.7,0.9-0.6,0.9-0.6c-1.9-1.7-6.2,0.7-5.5,5.8c-3.7,0.8-6.9,4-7.9,8.1c-2.5-3.7-2.9-9.1-1.1-13.9c3-8.1-3.9-14.9-17.4-19.3
		c-17.9-5.9-32.2-4.1-35.5-12.2c-1.6-3.8,1.7-9.3,10.5-7c1.6,0.4,3.1,0.9,4.5,1.4c-1.5,0.7-3.6,2-5.5,3.7c0,0,7.3,5.6,3.8,8.5
		c0.6,0.1,10.9-3.3,10.4-6.6c0,0-0.1-0.4-0.5-1.1c0.4,0.3,0.7,0.5,0.7,0.5s-3.7-6.4-13.3-9.1c-8.5-2.5-15.3,1.4-17.1,4.3
		c-1.9,3-2.5,5.9-2,8.6c-2.8-2-8.2,0.3-15.4,10.4c-18.2,25.4-36.3,27.9-42.1,29.2c-4.6,1-5.3,5.1-5.3,5.1s2.1-1.3,6.1,0.9
		c14.1,8,38.8-7.6,49.6-19.8c7-8,9.8-16.4,9.2-21.6c1.9,2.6,5.1,4.8,9.3,6.5c7,3,17.3,3,25.4,6c18.3,6.7,16.3,13.7,16.3,13.7
		s-4.2,13.4,5.9,20.2c2.5,1.7,4.8,2.5,6.9,2.7c0.3,0.3,0.7,0.7,1,1c7.2,6.7,8.8,12,9,15c-5-1.8-11.1-3.7-18.5-5.7
		c-36-9.6-57-24.1-54.4-32.3c0,0-0.8,0.9-1,2.5c0,0-6.1,24.2,52.1,38.4c52.4,12.7,43.5,28.7,43.5,28.7s0.1-0.1,0.2-0.3
		c-1.5,5.7-0.5,9.9,1.8,12.2c-0.4,10.8,4.1,19.8,12.8,20.6c0,0-6.9-5.4-6.9-13.1c0-1.9,0.6-4,1.8-6.1c6.5-2.3,8.7-11.5,9.1-13.5
		c1.4,1.6,2.8,2.7,3.1,1.4c0.7-2.7-1.5-11.2-0.1-14.4c1.1-2.4,2.3-0.1,2.3-0.1s1.2-4.1-0.6-6.7c-1.7-2.7-6,1.7-3.9,15
		c0,0-1.4-1.6-3.7-5.2c-2.5-3.8-7.1-4-6.9,1.6c0.2,5.6,6.1,3.6,6.1,3.6s1.8,2.7,3.5,4.6c-5.1,7.9-16.1,6.3-13.7-3.3
		c2.3-9.3,11.7-18.1,15.6-21.5c2.7,4.3,6.3,8.4,11,11.6c1,0.7,1.9,1.3,2.9,2c9,0.1,13.4,9.7,13.4,9.7c6.3,4.9,11.3,9.4,14.2,13.6
		c-9.9-3.4-13.4-12-13.4-12c2,8.4,9.9,12.2,14.5,13.7c1.1,2,1.7,4,1.7,5.9c-0.1,7.7-6.9,13.1-6.9,13.1c14.7-1.3,17.5-26.1,4.7-43.1
		c-6.7-8.9-11.7-10.6-16.8-14.8c-10.3-8.4-7.6-14.4-4.9-17.3c0.8,2.4,1.5,4.5,2,5.8c2.8,7.6,14.8,27.7,41.4,26.4
		c1.3-0.1,2.7-0.2,4-0.4c-12.4,19-1.8,23,0.6,19.5c2.3-3.2,1-8,1-8s-0.3-1.2-0.4,1.3c-0.1,2.3-1.3,3.9-2.9,3.5
		c-1.6-0.4-3.5-6.1,2-15.9c0,0,0.1-0.2,0.3-0.6c24.8-4.2,56.3-30.9,65.7-34.2C345.8,151.6,363.9,142.5,362.7,158.8L362.7,158.8z
		 M302.3,121.1l1.2,7.5c-0.5-0.5-3.3-0.5-5.3-0.4C299.8,125.6,301.2,123.2,302.3,121.1L302.3,121.1z M237.9,72.5
		c0,0,2.6-0.6,5.7-4.2c-0.7,1.1-1.2,3.5-1.9,6.1C240.6,73.8,239.4,73.1,237.9,72.5L237.9,72.5z M209.3,17.7
		c0.4-0.2-1.4,9.7-9.3,17.3c-0.8-3-1.7-5.8-2.5-8.4C200.1,24.1,206.1,19.1,209.3,17.7L209.3,17.7z M181.9,93.9
		c0.4,0.9,0.8,1.9,1.4,2.8c1.9,3.4,3.7,6.6,5.2,9.4C181.3,108.1,177.6,101.4,181.9,93.9z M164.2,158.8c-0.6-3.3-3.5-6.9-6.5-10.1
		c0.9-1.2,1.7-2.6,2.2-4.1C167.3,154.2,164.2,158.8,164.2,158.8z M151.3,138.6c2-1.1,3.9-0.3,4.6,1.3c0.9,1.9,0.5,5-0.7,6.2
		C151.9,142.6,149.3,139.7,151.3,138.6L151.3,138.6z M174.8,156.1c0.3-3.6,3.2-5.9,5-6.8c-0.1,1.7,0,3.5,0.4,5.5
		c0.4,2.6,0.7,5,1,7.2C179.8,161.7,174.4,160.4,174.8,156.1L174.8,156.1z"/>
	<path class="st1" d="M362.5,139.2c0,0-0.8-6.1-14.7-3.2c0,0,1.5,2.8-0.8,4.6C347.1,140.5,356.4,136.1,362.5,139.2z"/>
	<path class="st1" d="M246.4,190.7c0,0,8.9,12.7,6,23.4C252.4,214.1,260.3,204,246.4,190.7z"/>
	<path class="st1" d="M304.4,177.7c-3.4,10.3-18.6,11.4-28,12.2c-7.3,0.6-6.3,3.2-6.3,3.2c1.5,0.2,22.9,0,29.6-3
		C306.2,187,304.4,177.7,304.4,177.7z"/>
	<path class="st1" d="M328.4,174.5c0,0-5.3-5.5-12.8-5c-5.3,0.4-10.6,7.5,1.3,20.5c18.9,20.7,35.1,60.6,36.6,71.2
		c0,0,5.4-22.2-2.5-46.3C344.1,193.7,334.2,180.3,328.4,174.5z"/>
	<path class="st1" d="M356.6,227.1c0,0,3.3,18.7-0.8,37.4l3.1,7.4C358.9,271.9,369.8,245.5,356.6,227.1z"/>
	<path class="st1" d="M367.5,254.5c0,0-8.4,12.3-4.4,24.5c5.7,17.5,34.9,43.5,26.7,53.4c0,0,8.8-0.2,5.9-12
		C391.4,302.7,367.5,254.5,367.5,254.5z"/>
	<path class="st1" d="M428,222.3c-8.3-3.2-11.1-2.3-15.2-5c-10.2-6.8-14.6-18.4-21.5-34.3c-0.1,0.3-3.6-8.8-9.3-10.9
		c0,0-0.1,0-0.1,0c2.1-4.6-0.4-11.2-0.4-11.2s-0.6,7.1-5.5,6.6c-4.3-0.4-6.8-6.3-4.7-24c-5.4,14-3.8,31.3,3.5,32.6
		c-1.6,4.1-0.9,10.9,4.9,19.2c10.8,15.4,20.5,29.9,43.3,31.7c5.2,0.4,7.8,1.7,8.7,3.4C431.7,230.3,436.4,225.4,428,222.3L428,222.3z
		"/>
	<path class="st1" d="M117.3,169.6c-7.4-0.5-12.8,5-12.8,5c-5.8,5.8-15.7,19.1-22.7,40.4c-7.9,24.2-2.5,46.3-2.5,46.3
		c1.5-10.6,17.7-50.5,36.6-71.2C127.9,177.1,122.6,170,117.3,169.6z"/>
	<path class="st1" d="M76.3,227.1c-13.2,18.4-2.3,44.8-2.3,44.8l3.1-7.4C73,245.8,76.3,227.1,76.3,227.1z"/>
	<path class="st1" d="M37.3,320.4c-2.9,11.8,5.9,12,5.9,12c-8.2-9.9,20.9-35.9,26.7-53.4c4-12.2-4.4-24.5-4.4-24.5
		S41.6,302.7,37.3,320.4z"/>
	<path class="st1" d="M53.3,195.2c6.1-8.6,6.6-15.7,4.7-19.7c7.3-0.9,9.8-18.1,5-32.4c1.3,17.8-1.5,23.6-5.8,23.8
		c-4.9,0.2-5.2-6.8-5.2-6.8s-3.1,7.2-0.6,11.9c-0.2,0-0.3,0.1-0.5,0.2c-5.7,2.2-9.2,11.2-9.3,10.9c-6.9,15.9-11.3,27.4-21.4,34.3
		c-4.1,2.7-6.8,1.9-15.2,5c-8.3,3.2-3.6,8-3.6,8c0.9-1.7,3.5-3,8.7-3.4C32.7,225.1,42.4,210.6,53.3,195.2L53.3,195.2z"/>
	<path class="st1" d="M305.9,175.6c0,0,1.9,8-1.3,12.2c0,0,6.8-1.2,3.3-14.3L305.9,175.6z"/>
	<path class="st1" d="M164.7,190.2c5.5,9.8,3.6,15.5,2,15.9c-1.6,0.4-2.8-1.2-2.9-3.5c-0.1-2.5-0.4-1.3-0.4-1.3s-1.2,4.8,1,8
		c2.4,3.4,13.1-0.6,0.5-19.6C162.9,187,164.7,190.2,164.7,190.2z"/>
	<path class="st1" d="M157.4,189.9c-9.4-0.8-24.6-1.9-28-12.2c0,0-1.9,9.3,4.8,12.3c6.6,3,28.1,3.2,29.5,3
		C163.7,193.1,164.7,190.5,157.4,189.9z"/>
	<path class="st1" d="M127.9,175.6l-2-2.1c-3.4,13.1,3.3,14.3,3.3,14.3C125.9,183.6,127.9,175.6,127.9,175.6z"/>
	<path class="st1" d="M102.3,146.4c15.5,7.8,46,17.1,46,17.1l4.4-3c-2.7,0-49.4-17.1-49.4-17.1L102.3,146.4z"/>
	<path class="st1" d="M148,184.2c-6.1,0.1-12.8-7.7-13.2-8.2c0.5,9.2,15.2,12.5,20.9,7.9c5.8-4.5-4.4-7.2-7.3-5.8
		c-2.9,1.4-0.7,4.5-0.3,5.1c0.4,0.6,0.2,0.9,0.2,0.9L148,184.2z"/>
	<path class="st1" d="M241.7,118l-2.5,8.9c0,0,7.3,2.7,7.5,4c0.2,1.3,2.8-7.6,2.5-8.9C249,120.7,241.7,118,241.7,118z"/>
	<path class="st1" d="M251.8,112.2l-2.5,8.9c0,0,7.3,2.7,7.5,4c0.2,1.3,2.8-7.6,2.5-8.9C259.1,114.9,251.8,112.2,251.8,112.2z"/>
	<path class="st1" d="M263.7,146.7c0.2-1.2-5.1-6-5.1-6l-5.3,6.8c0,0,5.4,4.9,5.1,6C258.2,154.7,263.5,147.9,263.7,146.7z"/>
	<path class="st1" d="M358.7,105c0.2-1.6-7.2-7.3-7.2-7.3l-6.2,9.2c0,0,7.4,5.7,7.2,7.3C352.3,115.8,358.5,106.5,358.7,105z"/>
	<path class="st1" d="M334.5,77.4c-0.1,0.7,1-0.6,2.2-2.4c0.2,1.4,1,3,2.6,4.4c4.3,4.2,19.5,5.9,26.9,2.3c3.2-1.6,5.1-4.2,8-5.2
		c0.8-0.3-4-1.9-9.6-0.5c-4.3,1.1-9.2-0.4-13-2.8c-5.1-3.2-9.2-3.8-11.8-3c0.5-0.9,0.8-1.6,0.9-2c0.2-1.6-7.2-7.3-7.2-7.3l-6.2,9.2
		C327.4,70,334.8,75.8,334.5,77.4L334.5,77.4z"/>
	<path class="st1" d="M295.3,160.3c20.8-8.4,26-7.9,27-13.9c0,0-50.2,11.2-50.5,31c0,0,3.6-8.7,22.6-16.6c-7.8,7.2-3.2,10.7-1.4,9.3
		c1.8-1.4,2-4.2,2-4.2s0.1-0.7-0.5,0.6c-0.5,1.2-1.4,1.9-2.2,1.4C291.5,167.5,291.4,164.4,295.3,160.3L295.3,160.3z"/>
	<path class="st1" d="M65.7,163.3c1.2-0.5,15.8-3,17-20.8c0.2-3.6-0.1-6.6-1.2-9c-1.1-2.4-14.3,8.3-14.3,8.3l-1.6,11.7
		c1.2-1.6,9.4-8.3,13.2-9.8C79.3,143.4,76.6,155.9,65.7,163.3L65.7,163.3z"/>
	<path class="st1" d="M150.9,102.7c0,0-9.1-1.7-11.1-10l-0.7,2.8C139.2,95.5,141.7,103.7,150.9,102.7z"/>
	<path class="st1" d="M167.3,55.4l0.3,6c0.1-0.8,12.5-0.3,14.7,10.5C182.3,71.9,184.4,59.2,167.3,55.4z"/>
	<path class="st1" d="M211.3,162.7c6.6-9.2,2.2-21.7,2.2-21.7c1.7,12.3-3.1,20-3.1,20L211.3,162.7z"/>
	<path class="st1" d="M260.7,120c0,0,6.4-12.7,11.6-19c0,0,2.9-6.3,5.3-12c0,0-13.2,16.3-17.2,23C260.5,112,258.8,117.3,260.7,120z"
		/>
	<path class="st1" d="M95.2,58.8c6.4,3.8,15.2-4.6,14.7-10.5c-0.5-5.9-6.8-0.3-7.1,2.3c-0.3,2.6,2.8,2.4,3.3,2.5
		c0.6,0,0.7,0.3,0.7,0.3l-0.1,0.2C104,57.7,95.7,58.7,95.2,58.8L95.2,58.8z"/>
	<path class="st1" d="M170.4,90.1c-1.2-2.8-4.2-3.5-4.8,0.2c-0.6,3.7,3.6,3.1,3.6,3.1s4,8.4,4.8,6.6c0.8-1.7,0.4-7.6,1.7-9.5
		c1-1.4,1.5,0.2,1.5,0.2s1.3-2.5,0.5-4.5c-0.8-2-4.1-0.3-4.4,8.7C173.3,95,173.2,96.7,170.4,90.1L170.4,90.1z"/>
</g>
</svg>
