<?xml version="1.0" encoding="utf-8"?>
<!-- Generator: Adobe Illustrator 26.3.1, SVG Export Plug-In . SVG Version: 6.00 Build 0)  -->
<svg version="1.1" id="Layer_1" xmlns="http://www.w3.org/2000/svg" xmlns:xlink="http://www.w3.org/1999/xlink" x="0px" y="0px"
	 viewBox="0 0 339 334" style="enable-background:new 0 0 339 334;" xml:space="preserve">
<style type="text/css">
	.st0{opacity:0.2;}
	.st1{fill:#0B0B0B;}
</style>
<g class="st0">
	<path class="st1" d="M129.1,36c-0.6,0.4-1.2,0.9-1.8,1.4c-2.3,2.1-4.4,5.9-2.7,8.8c3.3,5.4,12,1.9,22.5-9.9
		c2.2-2.5,11.9-15.7,20.9-18.8c8.8-2.5,15.8,1.9,20.3,6.8c3.2,3.4,5.3,7.4,5.3,7.4C191,21.3,181.4,14,170.9,15.3
		c0.8-0.2,1.6-0.4,2.4-0.4c12.5-1.2,22.1,7.3,23.8,11.7c2.7,7.1,1,11.9-4.3,15.3c-7.3,4.7,5.1,11.7,12.5,17
		c6.1,4.5,29.5,21.7,12.2,55.7c0,0,11.3-8.5,12.6-22c2.1-21.7-12.6-32.9-21.8-38.7c-10.3-6.5-8.4-8.6-6.8-10.1
		c0.4-0.3,0.8-0.7,1.2-1.1c3.2,11.5,14.3,15.3,14.8,9.2c0.1-1.8-1.4-3.6-3.1-4.4c-1.8-0.9-3.8-0.8-2.8-0.6c1.5,0.4,3.1,2.3,2,3.6
		c-2,2.3-7.2-0.8-10.4-8.2c4.4-4.5,6.6-11.3,2.3-18.8C193.7,3.6,164.5,7,143,22.5c-5.3,3.8-9.2,6.3-12,7.9c1.5-5.9,5.7-11,7.5-10.2
		c1.5,0.7,0.1,2.5-0.5,3c0,0-1.8,1.5-3.2,1.5c0,0,1.2,0.5,3.2-0.5c7.2-3.4,5.5-10.8,0.3-6.9c-6.8,5.1-8.9,13-9.1,14
		c-4.3,2.2-5.4,2-5.4,2S125.1,35.7,129.1,36L129.1,36z M133.4,36.2c3.7-1.3,6.4,0.7,6.6,0.7c0,0,1.1-0.1,1.3-1.2
		c0.1-0.7-0.2-1.8-1.9-2.3c2.7-1.3,5.9-3.2,9.5-5.8c2.7-2,6.2-4.5,9.9-6.8c-7.5,6.1-15.6,16.4-22.1,21.4c-4.3,3.4-7.1,3.3-8.2,2.4
		C126.1,42.5,128.9,37.8,133.4,36.2L133.4,36.2z"/>
	<path class="st1" d="M147.3,73c-2.2-28.4-20.7-25.4-20.5-16.9c0.2,7,6.8,9.4,6.8,9.4s-3.8-5.7,0.6-8.3c6.4-3.7,12.7,13,11.2,26.7
		c0.1-5.4-1.2-8.9-3.1-11.4c-2.5-3.2-5.8-3.5-5.8-3.5c12.6,6.1,5.9,26.5,5.9,26.5S148.4,87.7,147.3,73z"/>
	<path class="st1" d="M147.4,10c30.6,3.2,26.6-12,20.9-12c-5.7,0-9.7,4.2-9.7,4.2s-1.2,1.2,1.8-0.3c2.9-1.5,4.9-0.9,5.5,0.9
		c0.7,2.2-2.8,7.2-18,6.7C148,9.4,143.1,9.3,147.4,10L147.4,10z"/>
	<path class="st1" d="M160.2,6.7c3.2-1.3,4-2.8,4.2-3.4c-7.2,4.2-10.9,0.4-10.9,0.4l-3.2,2.1C152.9,7.5,157.2,7.9,160.2,6.7z"/>
	<path class="st1" d="M170.9,9.2c0,0,16.6-3.2,26.4,4.5c0,0-4.9-8-15.9-8.1C174.8,5.5,165.6,10.1,170.9,9.2z"/>
	<path class="st1" d="M195.6,37.5c-8.6-4-12.2-15.9-12.2-15.9l-5.2-0.4c-0.4,1.5,2.8,3.9,2.8,3.9c0,0.7,0.1,1.8,0.1,1.8
		c2.1,8.1,8.4,11.5,11.6,11.5C194.6,38.4,195.6,37.5,195.6,37.5L195.6,37.5z"/>
	<path class="st1" d="M161.3,12c0,0-13.7-4.2-17.5,7.7l4.8-2.8C148.6,16.8,151.3,10.7,161.3,12L161.3,12z"/>
	<path class="st1" d="M217.3,76.5c-4.3-16.6-23-17.7-21.8-16.4c3.7,4.3,5.3,11.8,6.3,11.7c1-0.1,6.5,0.7,6.5,0.7
		c-0.8-4-3.1-6.4-3.3-7.3c3.9-0.1,9,6.1,10.8,9.7C217.4,78.1,217.3,76.5,217.3,76.5z"/>
	<path class="st1" d="M210.3,74.2c-1.3-0.8-9.2,1.9-9.2,1.9c-0.4,3.6,3.3,8.8,3.3,8.8c7.6-2.9,9-0.7,9-0.7
		C213.6,81.8,211.6,75,210.3,74.2z"/>
	<path class="st1" d="M196.8,158.2l0.2,4.4c0,0,4.9,5.5,1.9,13.2C198.5,177.1,205.2,167.4,196.8,158.2z"/>
	<path class="st1" d="M195.5,123.6c5.9-1.6,8.2-8.2,6.2-11.3c-2.1-3.3-4-0.3-3.7,1.8c0.3,2.1,2.3,1.8,2.3,1.8l0.7-0.2
		C201.3,119.9,195.5,123.6,195.5,123.6z"/>
	<path class="st1" d="M243.7,309.9c9.4-35.7-24.7-47-7.6-65.3c4.8-5.2,7.7-8.1,9.8-11.1c7.4-10.6,2.9-15,2.8-14.6
		c-0.6,1.4-2.3,3.2-3.3,4.2c-3.1,3.4-7.2,5.8-5.9,3.4c2.6-4.8,6.9-9.3,13.1-15.5c16.4-16.1,15.3-37.8,15.3-39l4.4-5.8
		c-5.2-9.3-4-19-4-19s-7.6-0.1-6.5,27.6c1.1,29-28.5,38.5-27.1,61.5c0,0-7.8,8.5-7,23.3c0.8,15.2,14.9,23.9,14.5,41.9
		c0.1,0.6-0.3,2.6-1.2,4.2c-1.9,3.2-6.5,7-13.1,2.2c-9.9-7.1-6.6-21-3.3-30.3c2.3,1.5,2.2,2.6,2.2,2.6c1.3-1.5,3.9-7.2,3.5-8.5
		c-0.4-1.3-7.3-4-7.3-4c-2.3,2.2-2.7,7.9-2.7,7.9c1,0.3,1.8,0.7,2.5,1c-4.6,9.1-5.8,19.3-4,27.3c-4.8,3.5-15.5,10.3-30.7,13.8
		c0,0,14.6-4.4,19.2-20.6c5.2-18.2,8.2-19,11.2-15.8c0,0,3-5.9-0.4-9.1c-3.9-3.8-8.2,5.7-14,24.8c-5,16.4-40.7,26.6-40.7,26.6
		s23.2,5,54.8-12.9c0,0-13.5,17.5-46,20.9c0,0,32.2,11.3,66.3-14.3l-0.2,0C240.9,315.5,242.9,312.7,243.7,309.9L243.7,309.9z
		 M205.2,327.2c0,0,13-6.4,16.7-15.6c0.9,1.4,1.9,2.6,3,3.5c1.5,1.3,3,2.1,4.4,2.7C225.1,320.7,216.2,325.7,205.2,327.2z"/>
	<path class="st1" d="M253.4,194.7c1.8-4.1,3.2-5.4,3.2-5.4c0.7,2.4-5,11.7-5,11.7c8.7-10.7,8.7-19.8,8.2-19.3
		c-5.9,4.7-6.5,10.1-6.5,10.1C253.4,192.6,253.3,195.1,253.4,194.7L253.4,194.7z"/>
	<path class="st1" d="M255.2,262.1c0,0,0.8,8-3.4,8.8c-7,1.5-8.4-11.3-6.8-21c1.8-11-0.8-5.3-0.8-5.3c-7.9,24.5,3.3,38.1,9.8,34.5
		c6.9-3.9,1.7-17.1,1.7-17.1C254.9,259.8,255.3,262.1,255.2,262.1L255.2,262.1z"/>
	<path class="st1" d="M258.1,211.6c-0.6-0.4-3.5-1.5-3.5-1.5c-3.8,3.4-3.3,10.2-3.3,10.2c4.3,0.5,6.3,4.2,6.3,4.2
		C254.8,218.4,258.1,211.6,258.1,211.6z"/>
	<path class="st1" d="M280.8,248.8c0.9-9.5,4.8-24.9-19.5-35.8c0,0-7.9,8.9,1.1,16.9c4.7,4.2,11.9,6.2,11.9,6.2s0.2,6.5-1.6,11.3
		c-1.8,4.7-4.1,9.1,2,15.2c0,0-0.6,5.6,7.2,7.5c0,0,2.2,1,0.7-1.7C281.6,266.5,280.1,257.1,280.8,248.8z"/>
	<path class="st1" d="M270.5,192.5c0.1-1.1,0.2-8.5,3.7-12.6c0,0-3.1-1.4-5.7-1.1c0.7,3.7-0.7,12.3-0.7,12.3
		C268.9,191.2,270.5,192.5,270.5,192.5z"/>
	<path class="st1" d="M338.1,240.5c-1.9-2.9-7.2-4.4-15.9-3.4c-4.8,0.6-8.9-21.9-21.3-37.5c0,0-3.2-10.1-25-19.4
		c0,0-6.6,7.4-3.1,14.5c0,0,10.2,9.4,24.5,10.8c0,0,0.4,6.8,6.5,13.1c4.9,5.1,9.7,18.3,9.8,19c0.1,0.7,1.6,10.3,12.4,7.1
		c11.7-3.5,12.5-1.6,12.5-1.6S340,243.4,338.1,240.5z"/>
	<path class="st1" d="M234.5,284.1c-0.4-1.3-7.3-4-7.3-4c-2.3,2.2-2.7,7.9-2.7,7.9c1.2,0.4,2.1,0.8,2.9,1.2
		c-1.5,13.4,5.6,19.5,8.7,17c3.5-2.8-0.6-9.6-0.6-9.6c-0.7-1.1-0.3,0.1-0.3,0.1s1.1,4.3-1.1,5.2c-3.7,1.4-5.7-5.5-5.7-11
		c0-0.4,0-0.7,0-1c2.7,1.6,2.6,2.9,2.6,2.9C232.3,291.2,234.9,285.4,234.5,284.1L234.5,284.1z"/>
	<path class="st1" d="M247.3,283.1c-3.1,5.2,0.2,11.2,0.2,11.2s0.5-3.3,2-4.8c1.2-1.2,3.8-1.4,4.4,1.5c1.8,10-11.1,21.7-11.1,21.7
		s14.8-7.3,13.9-24.7C256.2,280,250.2,278.2,247.3,283.1L247.3,283.1z"/>
	<path class="st1" d="M207.8,308.1c0,0,8.1-3.7,7.9-13.1c-0.1-4.3-3.3-5.4-5-2.8c-1.8,2.8-0.1,6-0.1,6s0.3-1.8,1.1-2.6
		c0.7-0.6,2.1-0.7,2.3,0.9C215,301.9,207.8,308.1,207.8,308.1z"/>
	<path class="st1" d="M242.2,240.5c-2.2,3.3-4.4,4.2-4.4,4.2l1,2.5c-0.7,0.8-1.4,1.5-1.9,2.1c-10.5,13.6,4.9,19.2,4.9,19.2
		c-4.1-2.1-10.8-9.7-3.4-17.3C245.8,243.8,242.2,240.5,242.2,240.5z"/>
	<path class="st1" d="M247.3,246.4l-0.7,6.3c0,0,8,6.5,4.5,15.1C251.1,267.9,259.6,259.7,247.3,246.4z"/>
	<path class="st1" d="M212.6,167.4c6.8-0.8,7.5,1.2,7.5,1.2c0.5-1.8,0.3-7.7-0.6-8.7c-0.9-0.9-7.9-0.3-7.9-0.3
		C210.6,162.4,212.6,167.4,212.6,167.4z"/>
	<path class="st1" d="M203.4,160.5c1-1.5,2.6-7.1,2-8.2c-0.5-1.1-7.2-2.7-7.2-2.7c-1.8,2.4-1.4,7.5-1.4,7.5
		C203.3,158.4,203.4,160.5,203.4,160.5L203.4,160.5z"/>
	<path class="st1" d="M256.6,152.4c-7.1-8-3.5-23.6-3.5-23.6s-8,8-5.8,38c2.4,32.3-14.9,56.8-38.2,66.1c0.3-1.3,0.7-2.6,1.2-3.7
		c0.8-1.9,1.1-3,1.2-3.5c6.5-2.5,13.2-8.3,18.3-16.8c7.6-12.6,9.9-10.4,9.9-10.4s3.9-8.3,3.8-11.6c0-1.2-5.7-0.5-16.7,16.6
		c-6.8,10.5-16.1,16.7-23,16.1c1.6-4.5-0.4-9.4-3.4-10.4c-3.8-1.4-3.5,2.2-2,3.8c1.5,1.6,3,0,3,0l0.5-0.6c1.6,1.9,1.5,4.9,1.1,7.2
		c-1.6-0.2-3.1-0.9-4.4-1.9c-5.8-4.7-5.9-12.5-2.9-17.9c4.1,9.5,11.2,13.3,17.5,10.2c1.9-1,3.6-2.9,4.9-5.4
		c9.4-0.1,14.8-9.7,16.5-19.8c4.5,0.1,8-2.3,9.2-8.1c2.1-9.9-0.8-24-3.3-33.6c6-2.9,10.3-9.6,10.5-18.5c0-8.9-1.9-17.2-8-22.5
		c-2.2-2-7.9-5.5-11.8-1.8c-1.4,1.3-2.3,3.5-3.7,6.4c-4,8.6-8.5,11.4-11.2,11.9c0.2-2.8,0.9-5.9,1.9-9.3c2.1-6.7,3.2-12.1,3.3-16.7
		c0.1-7.2-2.2-11.9-4.6-14.2c-2.9-2.7-1.4-0.5-1.4-0.5c1,4.2,1.3,7.9,1.2,11.1c-10.9-6.5-12.2,0-10,1.1c2.3,1.1,4.6,0.2,4.6,0.2
		s0.7-0.2-0.8-0.2c-1.3,0-2.1-0.6-2-1.4c0.1-1,2.4-2.2,8.1,0.7c-0.7,16.4-13.1,20.8-13.6,17.4c-0.3-1.6,2.3-6.7,5.2-8.2
		c3.5-1.8,4.4,0.5,4.4,0.5c0,0,1.3-1.8,0.3-4.4c-0.3-1-1.3-2.6-3.9-1.9c-5,1.4-10,10-8.7,16.3c1.1,5.2,8.2,5,12.7-2.5
		c0,0-1.9,4.9-1.7,11.6c-1,0-1.8,0.1-2.9,0.2c-18,2.7-22.4,26-10.8,29.9c10.2,3.4,16-5.4,20.5-12.1c0.4,0.5,0.8,0.9,1.2,1.4
		c5.2,5.5,11,7.4,16.3,6.7c6.3,16.5,6.3,28.3-0.7,30.8c0-0.1,0-0.3,0-0.4c-0.7-10.4,1.8-19.5,1.7-19.6c-1.3-4.1-4.4-9-5-7.3
		c-1.4,5-3.1,9-4.9,12.1c0.4-2.2,0.1-7.3-0.8-8.1c-0.9-0.9-7.9-0.3-7.9-0.3c-1.1,2.9,1,7.8,1,7.8c5.5-0.7,7,0.5,7.4,1
		c-6,10.3-12.9,11.8-12.9,11.8l2.7,7.9c3.1,0,5.6,0.5,11,2.8c0.3,0.1,0.6,0.2,0.9,0.4c-1.3,3.9-3.8,7.9-7.6,10.4
		c0.1-5.7-1.8-11-6.8-12.8c-8.6-3-10.7,12.9-4.1,20.1c-0.6,0.1-1.3,0.2-1.9,0.1c-4.2-0.5-7.4-4.5-9.1-10c5.1-5.3,7.6-14.9,9.9-24.1
		c5.3-21,13.9-17.3,13.9-17.3s1.6-7-0.9-9.1c-3.4-2.9-10.7,2.3-18,25.2c-1.9,6.1-4.2,10.9-6.5,14.7c-1.5-22.3-3.4-35.1-4-34.7
		c-2.7,2.8-3.4,10.9-3.4,10.9c0.2,0.2,0.6,3.5,1.1,8.7c-0.2,0.2-0.3,0.4-0.3,0.4c-6.4,10-6.5,20.7-3.5,22.2c0.8,0.6,2.7,0.4,3.7-1.2
		c0.8-1.3,0.7-3,0.7-3s-0.7,1.6-2.1,1.5c-4.1-0.5-1.9-10.5,0.7-16.2c0.5-1.1,0.8-1.9,1-2.5c0.4,5,0.9,11.6,1.3,18.5
		c0,0.6,0.1,1.3,0.1,1.9c-5.5,6-10.6,7.2-11.7,7.6c-2.1,0.6,5.5,3.3,13,0.1c0.3,1.1,0.6,2.1,0.9,3c-4,4.7-8.1,17.2-0.3,25.2
		c4.2,4.3,10,5.2,16.1,3.1c-1.6,2.7-2.7,5.2-3.5,7.6c-1.6,0.6-3.2,1.1-4.9,1.5c-0.1-4.5,0.1-8.1,0.1-8.1s-1.7,0.4-3.4,2.3
		c-1.3,1.5-2,2.8-2,2.8c0,0-0.4,5.9,0.4,12.6c0.2,2,1.4,11.5-5.1,11.3c-4.8-0.1-4.8-6.6-5.7-12.4c2.2-1.6,3.9-3.2,5.1-4.8
		c-4.3,8.4-1.6,14.8,1.2,14.3c3.1-0.5,2.1-6.3,2.1-6.3c-0.2-0.9-0.2,0-0.2,0s-0.4,2.9-2,2.9c-2.8,0-2.1-6.5-0.5-10.3
		c0.9-2.3,0.9-2.6,0.7-2.5c0.8-1.6,1.3-3.2,1.4-4.7c0.7-0.1,1.1-0.2,1.1-0.2c1.6-0.3,1.4-3.9,1.4-3.9c-0.5,0.1-0.6,0.1-1.5,0.2
		c-0.4,0-0.7,0.1-1,0.1c-0.6-4-2.8-7.5-4.4-9.6c-1.2-1.5-2.9-1.5-3.7,0.1c-0.9,1.8-1.7,4.5-1.5,8.2c0.2,4.1,3.8,5.1,6.8,5.2
		c-0.5,4.5-3.2,8.3-5,10.5c-0.3-1.7-0.8-3.4-1.6-4.7l-5.2,7.3c0,0,2.8,4.5,2,9.4c-1.3,8.4-20.7,12-19.4-9.1
		c8.5-1.7,14.3-5.2,17.8-8.6c3.8-3.6,3.5-12.1,2.4-11.5c-5.6,3.1-12.9,2.2-12.9,2.2s-3.2,5.7-2.1,7.2c1.5,1.9,9.4-0.5,9.3-0.2
		c-0.2,1.4-4.5,4.1-7.7,5.5c-2.2,1-4.4,1.9-6.7,2.7c0.7-4.9,2.5-9,4.1-11.7l-0.1,0.1c4.4-8.3,5.8-20.8,6.6-27.8
		c1.2-11.1,3.1-15.3,3.1-15.3l3.3-2.6c-1.3-11.2,4.5-20.5,4.5-20.5s-3.2-0.4-6.9,3.4c-1-3.5-6-5.1-9.4-0.6
		c-18.3,7.5-24.6,23.1-19.7,23.9c4.9,0.8,7.3-7.7,7.3-7.7c-4.7,4.1-4.2,0.6-4.2,0.6c1.6-8,13.1-13.9,15.6-15.1
		c-0.9,1.7-1.6,4.1-1.9,7.1c-2.7,0.5-5.7,1.1-7.7,2.2c-2.7,1.5-2,3.6-2,3.6c3.1-1.3,6.8-2.1,9.4-2.5c-0.1,2.2,0,4.7,0.3,7.6
		c3.3,30.8,0.1,35.9-11.1,42.5c0,0,7.2-0.3,11.2-8.3c-1.2,6.5-3.3,9.5-8.5,9.7c-1.7,0.1-3.1-1.2-4.5-3c6.4-11.5,12.4-12.1,12.4-12.1
		s1.1-10.2,1-10.3c-15.2,6.6-34.4,7.3-34.3,7.3c0,0-0.8,7.5-0.5,8.7c6.8,0.6,10.4,3.7,13,7.1c-3.2,3-6.9,5.7-10.7,6.2
		c0,0-6.5,0.8-8.4-5.1c-0.8-2.7-0.3-6.5-0.5-9.2c2.6,2.7,4,5.5,4.6,7.1c-6.5-25.2-43.3-20.6-43.3-20.6l-5.1-3.5
		c-6.7,6.2-17.6,6.7-17.6,6.7c4.4,6.3,11.1,6.2,19.8,5c5.5,13,14.8,15.5,23.6,14.6c1.2,4,3.1,7.5,5.2,10.2c-0.7,0.4-2.4,1.6-3.3,3.7
		c-1.2,2.6-4.5,2.8-8.6,3.4c-4.1,0.5-5.7,2.3-6,3.6c0,0-3.1,0.3-3.7,3.6c0,0,3-1.3,4.4-0.9c0,0-0.1,2.9,2.1,2.8
		c2.2-0.1,13.2-4.3,15.6-4.3c0,0,0.6-5.5,2.3-9c2.9,2.5,5.7,3.1,7.4,1c3.8-4.8-4.1-10.7-4.6-10.1c0,0,1.2,1.2,1.6,2.6
		c0.4,1.5-0.1,3.3-2.2,3.6c-3.9,0.5-6.9-5.7-8.8-10.2c2.2-0.3,4.4-0.8,6.5-1.4c3.2-0.9,7.3-3.1,6.8,0c-0.5,3.1,0.7,13.1,8,15.5
		c5.8,1.9,13.4-2.3,19-9.1c0.2,0.3,0.4,0.6,0.7,0.9c-8.8,10.7-9.8,25.3-3.2,25.3c6.9,0,6.6-11.1,5.8-11.2c0,0-0.2,1.9-1.2,3.3
		c-1.1,1.4-3,2.2-4.6,0.6c-3.6-3.6,1.5-12.5,4.1-17.1c1.5,1.5,3.2,2.6,5.6,2.8c2.7,0.2,5-0.6,7-2.1c-1,1.8-1.9,4.1-2.6,6.7
		c-6.1,1.8-11.1,2.7-11.1,2.7c3.8,0.2,7.3,0,10.5-0.4c-1.8,8.8-1,19.4,6.7,22.5c12.5,5,17-6.8,17-6.8s1.2-3.3,1.6-1.9
		c0.7,2.7,2.6,6.4,7.1,6c7-0.7,8.1-11.4,8.8-9.7c1.8,4.4,4.6,7.6,9.1,7.3c0.1,0,0.5,0,0.5,0c9-0.3,11.3-16.3,13.8-19.6
		c3.8-5.2,4.1,4,4.1,4s2.5-9.5-0.7-13.4c-2.6-3.1-6.1,2.7-7.5,7.2c-1.9,6-5.4,14.4-12.1,11.5c-3.6-1.6-4.6-10.3-4.7-17.3
		c1.1,0,2.6-0.1,4.3-0.3c-2.3,9.3,1,15.7,4.6,15.1c4.8-0.8,3.2-9.8,3.2-9.8c-0.3-1.4-0.3,0-0.3,0s-0.6,4.5-3.1,4.5
		c-3,0-3.4-5-2.5-10.1c9.4-1.3,24.1-5.8,32.9-20.9c13.8-23.5,11.7-55.3,11.7-55.3L256.6,152.4L256.6,152.4z M198.9,139.4
		c-5-2.1-6.1-13.4,6.7-18.2c-8.6,12.3-2.4,19.2,1.3,15.6c3.1-2.9,2.1-7.5,2-7.9c0-0.1-0.4-1.9-0.4,0.7c-0.1,2.5-1.5,3.8-3.3,3.2
		c-2.2-0.7-2.2-6.2,0.6-10.8c0,0,0.4-0.6,0.6-1.1c0.8-0.3,1.7-0.5,2.7-0.8c0.9-0.2,1.8-0.4,2.7-0.4c0.3,3.5,1.1,7.4,3.2,11.2
		C209.5,138.5,203.9,141.5,198.9,139.4L198.9,139.4z M220.5,133.5c4.5-5.9,6.6-2.5,6.6-2.5s1.2-6.4,0.6-9.1
		c-0.6-2.5-5.1-1.6-10.4,5.6c-0.6-2.2-0.9-4.9-0.7-7.9c4.9,2.4,9.1,1.1,12.5-1.9c-0.5,3.9,0,9.9,3.9,19.2
		C228.5,138,223.8,137,220.5,133.5z M238.1,134.1c-0.3-1-0.5-1.6-0.5-1.6l2.1-6.1c-6.2-3.2-7.8-8.5-8.1-11.8c1.4-1.9,2.6-4,3.5-6.2
		c1.2-2.8,2.9-3.8,4.6-3.3c0,0.1,0,0.1-0.1,0.2c-3.5,14.2,3.9,13.3,4.3,10.6c0.4-2.7-1.3-4.8-1.3-4.8s-0.4-0.7,0,0.9
		c0.4,1.4,0.1,2.4-0.8,2.5c-1.1,0.2-3.2-1.8-2-8.9c0,0,0-0.2,0.1-0.5c3.5,1.3,6.6,9.1,3.8,19.9C242.7,129.1,240.7,132.1,238.1,134.1
		L238.1,134.1z M225.6,174.6c0,0,2.7-1.5,4.2-4.4c0,0.8,0,2,0.2,4.9c0,0.2,0,0.4,0,0.6C228.2,175.5,226.6,175,225.6,174.6z
		 M212,189.1c1.3-1.1,4.6-0.5,4.8,3.2c0.1,1.1-0.3,2.4-0.9,3.7c-0.2,0-0.4,0.1-0.6,0.1C210.4,197.3,209.1,191.6,212,189.1z
		 M188,223.4c0,0,1.7-3,3.3,4.8c0,0,0,0,0,0C185.9,227.6,188,223.4,188,223.4L188,223.4z M167.3,179.4c0.4-0.1,0.7-0.1,0.7-0.1
		l-0.3-3.4c0,0-0.1,0-0.1,0c0.5-3.1,1.4-5.3,3.1-6.3c2-1.1,4,5.3-0.5,6.4c0,0-1,3.5,0.1,4.7c0,0,0.3,0,0.7-0.2
		c-1.1,3.8-2.1,8.4-2.7,14.2c-0.2,1.8-0.4,3.5-0.6,5.2C167.5,191.5,167.1,184.6,167.3,179.4L167.3,179.4z M111.4,220.5
		c-12.2,3.9-20.6-0.9-25.5-5.6c5.5-0.8,11.8-1.8,18.7-1.8c7.2,0,12.3,1.9,16.1,4.4C119.1,217.8,117,218.7,111.4,220.5z M149,223.3
		c-1.2-1.6-2.4-3-3.9-3.9c0,0,4.5-0.2,7.8-1.6C153,217.9,151.4,220.3,149,223.3L149,223.3z"/>
	<path class="st1" d="M225,246.7c-7.7,8.5-5.5,16.1-2.2,15.8c3.5-0.3,3.8-6.6,3.8-6.6c0-1-0.2-0.1-0.2-0.1s-1.1,3.4-3,3
		c-3.1-0.7-1.4-6.1,1-9.8C227.1,244.8,225,246.7,225,246.7L225,246.7z"/>
	<path class="st1" d="M209.2,239c3.2-2,10.6-1.9,10.6-1.9l1.1-1.4c-5.6-0.7-11.1,1.4-11.1,1.4L209.2,239z"/>
	<path class="st1" d="M178.5,216.4c3.2-10.2,11.2-12.1,11.2-12.1l2.8-5.6c-8.3,1.2-12.5,8.8-13.9,13
		C177.7,214.9,178.5,216.4,178.5,216.4z"/>
	<path class="st1" d="M183.9,197.7c-13.8,12.9-12.6,26.5-7.3,27.2c5.6,0.7,7-8.9,6.9-9.6c0.2-1.9-0.6-0.2-0.6-0.2s-2.1,3.9-4.8,3.5
		c-4.8-0.8-0.4-11.6,4.2-17.4C187,195.2,183.9,197.7,183.9,197.7z"/>
	<path class="st1" d="M177.7,249c-0.2-1.4-6.6-5.3-6.6-5.3c-2.8,1.8-4.1,7.5-4.1,7.5c6.4,3.6,5.8,5.9,5.8,5.9
		C174.3,255.7,177.9,250.4,177.7,249L177.7,249z"/>
	<path class="st1" d="M272.9,161.5c0,0,3.2-0.1,3.8,1.2c0,0-2.5-4.2-0.2-12.2c0,0-7.6-3.4-6,0C270.5,150.5,273.8,154.1,272.9,161.5z
		"/>
	<path class="st1" d="M285.9,169c4.8,1.7,10.2,2.6,13.6,3.1c0,0,0.7,14.4,7.9,21.1c5.4,5,3.2,18.2,9,22c0,0,0.9,0.7,0.9,1.8
		c0,0,6.5-1.3,10.9-0.2c3.4,0.8,4,2.8,4,2.8s1.8-3.8-1-6.7c-4.6-4.8-11.4-2.7-11.4-2.7s-2.3-2.8-3.8-6.9
		c-2.7-7.7-6.7-27.5-15.3-37.3c0,0-2.8-9.3-22.7-14.7C277.9,151.2,273.1,164.5,285.9,169L285.9,169z"/>
	<path class="st1" d="M181.8,266.5l-4.4,4c14.2,2.3,30.9-6.1,30.9-6.1c-2.8,0.1-4-0.9-4-0.9C190.6,270.6,181.8,266.5,181.8,266.5z"
		/>
	<path class="st1" d="M180.5,182.6c1.5-4.1,6.7-13.2,6.4-13.8l-1.1-2.1C181,174.7,180.5,182.6,180.5,182.6z"/>
	<path class="st1" d="M147.3,201.8c4.6,2.1,1.5,7.2,1.5,7.2s6.2-3.8,4.5-11c-2.1-8.8-30.4-4.2-39.5,9.3l-1.3,2.2l3.7,1.2
		C128.1,200.6,143.2,199.9,147.3,201.8z"/>
	<path class="st1" d="M102.7,215.1c0,0,1,0,1.8,0.5c0.8,0.5,1.3,1.4,0.5,2.4c-2.4,3-11.3-2.8-10.6-1.6c6.1,4.9,14.7,4.9,14.4,1.2
		C108.5,213.9,102.7,214.6,102.7,215.1L102.7,215.1z"/>
	<path class="st1" d="M141.4,202.1c-7.1,5.2-24.3,9.5-24.3,9.5C142.6,210.8,141.4,202.1,141.4,202.1z"/>
	<path class="st1" d="M77,216.6l0.6,6.3c7.2,2.8,6.3,9.7,6.8,7.7C86.8,221.2,77,216.6,77,216.6z"/>
	<path class="st1" d="M62.2,213.6c-12.7-3-9.9,14-3.5,16.2c6.4,2.2,10.7-2.5,10.7-2.5s2.4-1.8,4.4,0.7c0,0-7,9.8-26.4,3
		c0,0,0.1,0.1,0.1,0.2c-0.2-0.2-0.4-0.5-0.6-0.7c-7.1-7.6-15.5-2.5-18.2-1.8c-2.7,0.7-4.9-0.6-4.9-0.6s-0.2,10,8.3,8.8
		c0.2,0,0.3-0.1,0.5-0.1c0.1,0.9,0.4,2.9,1,5.2c-3.6,1.9-8.6,5.7-8.6,5.7c-1.1,0.8-2.1,1.7-3,2.5c-0.6-2.1-1.4-4.2-2.1-4.6
		c-0.6-0.4-2.6,0-4.5,0.5c-0.1-1-0.1-2.1,0.1-3c-1.4,1.3-2.7,2.7-3.8,4.1c-0.1,0-0.1,0-0.1,0c0,0,0,0,0,0.1c-8.1,10.3-8.3,21-8.3,21
		c-7.8,12.5,1.1,19.3,1.1,19.3c-1.8-10.8,8.2-24,17.5-33.6c0.7,0.2,1,0.5,1,0.5c0-0.4,0-0.8-0.1-1.4c4.1-4.2,8-7.6,10.5-9.8
		c-9.8,10.1-16.7,28.4-16.7,28.4c13.8-0.8,28.5-16.6,28.5-16.6c1.2-1,1.9-1.8,2.2-2.5c4.7-1.3,6.2-6.5,5.1-12.1
		c7.6,2,23.4,0.6,25.7-6.3C80.2,226.7,75.4,216.8,62.2,213.6L62.2,213.6z M5.1,272c-0.1-10.3,4.3-16.8,7.5-20
		c0.9,1.9,1.9,3.3,1.9,3.3c1.2-0.4,2.2-0.8,3.1-1C9.1,263.1,5.1,271.9,5.1,272L5.1,272z M21.9,267.2c4.1-8.9,11-17,13.8-20.1
		c1.6,2.9,4,5.3,7.6,5.7C33.9,262.2,21.9,267.2,21.9,267.2z M39.4,244.1c-2.9-1.5-4.1-4.7-4.4-8.2c3.4-1.4,7.1-3.4,10.8-1
		C50.4,238,47.3,248.2,39.4,244.1z"/>
	<path class="st1" d="M139.3,245.1c0.3,7.4-6.1,11.9-5.8,8.4c0.2-2.4,2.1-5.6,2.5-6.2c0,0-1.2-3-1.2-3c-0.1,0.1-0.2,0.3-0.3,0.4
		c0,0,0,0,0,0c-0.1,0.2-0.3,0.4-0.4,0.7c0,0,0,0,0,0c-4,6.7-6.4,5.5-5.3,2.9c1.1-2.8,2.4-1.5,2.6-1.3c0,0,0.3-0.7,0.1-1.4
		c-0.3-0.8-1.2-1.6-2.4-1.1c-1.8,0.7-2.8,5.9-1.1,7.6c0.7,0.7,1.8,0.9,3.3,0.2c-0.9,5.9,3.9,7.3,6.9,3.2
		C142.4,249.6,139.4,244.9,139.3,245.1L139.3,245.1z"/>
	<path class="st1" d="M54.2,230.6c2.1-2.6-2.2-6.1-2.2-6.1s0.8,3.2-1.4,3c-2.4-0.3-4.9-3.6-6.4-6.1c4.5-0.9,7.6-0.9,7.6-0.9v-2.7
		c-3.3-0.1-6.3,0.4-9,1.2l0,0l-0.1,0.1c-8.7,2.6-14.3,8.3-14.3,8.3c5.1-3,10.3-4.6,14.5-5.6C46.5,228.8,52.3,233,54.2,230.6z"/>
	<path class="st1" d="M24.5,264.5c6.7-2.1,16.1-10.3,16.1-10.3l-1.5-0.7c-4,3.9-12.7,8.5-12.7,8.5L24.5,264.5z"/>
	<path class="st1" d="M28.5,257.7l-1.9,2.5c3.4-0.7,11.9-7.2,11.9-7.2l-0.9-1.4C33.9,255,28.5,257.7,28.5,257.7z"/>
	<path class="st1" d="M28.4,245.1c0.1-2-1.7-8.2-2.9-9c-1.2-0.8-8.3,1.7-8.3,1.7c-0.4,3.3,3.1,8,3.1,8
		C27.1,243.1,28.4,245.1,28.4,245.1L28.4,245.1z"/>
	<path class="st1" d="M267.3,196.3c-8,4.2-11.5,13.7-8.2,14.5c3.2,0.8,4-4.2,4-4.2s-1.1,1-2.1,0.1
		C260,205.9,259.6,203.3,267.3,196.3z"/>
</g>
</svg>
